<?xml version="1.0" standalone="no"?>
<!DOCTYPE svg PUBLIC "-//W3C//DTD SVG 1.1//EN" "http://www.w3.org/Graphics/SVG/1.1/DTD/svg11.dtd">
<svg xmlns="http://www.w3.org/2000/svg">
<defs >
<font id="Catamaran" horiz-adv-x="583" ><font-face
    font-family="Catamaran Thin Thin"
    units-per-em="1000"
    panose-1="0 0 0 0 0 0 0 0 0 0"
    ascent="1100"
    descent="-540"
    alphabetic="0" />
<glyph unicode=" " horiz-adv-x="240" />
<glyph unicode="!" horiz-adv-x="138" d="M54 185L99 164L108 702H54V185ZM68 76Q51 76 41 65T30 38Q30 22 40 11T68 0Q84 0 95 11T107 38Q107 54 96 65T68 76Z" />
<glyph unicode="&quot;" horiz-adv-x="275" d="M206 702Q194 702 186 697T173 682T168 663Q168 653 177 639T204 625Q203 598 186 578T143 543L159 518Q187 532 206 553T235 601T245 659Q245 674 235 688T206 702ZM83 702Q71 702 63 697T50 682T45 663Q45 657
49 648T61 632T81 625Q80 598 63 578T20 543L36 518Q64 532 83 553T112 601T122 659Q122 674 112 688T83 702Z" />
<glyph unicode="#" horiz-adv-x="497" d="M380 502L347 371H216L249 502H202L169 371H30L38 332H159L121 179H30L38 140H111L77 4L123 0L158 140H289L255 4L301 0L336 140H467L460 179H346L384 332H467L460 371H394L427 502H380ZM337 332L299 179H168L206 332H337Z" />
<glyph unicode="$" horiz-adv-x="534" d="M193 -111V-10Q166 -6 138 0T87 14T55 29L70 68Q88 60 114 51T171 35T236 29Q294 29 333 47T392 96T413 160Q413 197 393 226T333 280T232 330Q188 348 154 369T97 414T62 469T50 535Q50 592 88 634T193 690V787L233 797V694Q237
695 243 695T256 696Q267 696 278 696T300 693V790L341 800V686Q365 681 386 673T424 657L402 621Q385 629 365 637T319 650T258 655Q186 655 144 619T102 530Q102 492 122 462T183 406T283 355Q328 336 362 316T418 271T452 219T464 157Q464 102 433 62T341 1V-111H300V-8Q286
-10 270 -11T237 -13H233V-111H193Z" />
<glyph unicode="%" horiz-adv-x="809" d="M526 710L218 0L264 -4L573 706L526 710ZM192 702Q150 702 116 681T61 622T40 532Q40 478 60 441T114 383T193 363Q234 363 268 383T323 442T344 532Q344 586 325 624T272 682T192 702ZM192 665Q238 665 267 630T297 532Q297
489 282 460T244 415T193 400Q151 400 119 435T87 532Q87 576 102 605T142 650T192 665ZM617 338Q575 338 541 317T486 258T465 168Q465 114 485 76T539 19T618 -1Q659 -1 693 19T748 78T769 168Q769 222 750 260T697 318T617 338ZM617 300Q663 300 692 266T722
168Q722 125 707 96T669 51T618 36Q576 36 544 71T512 168Q512 212 527 241T567 285T617 300Z" />
<glyph unicode="&amp;" horiz-adv-x="647" d="M453 117Q424 78 382 53T289 28Q241 28 197 49T125 109T97 202Q97 253 118 296T182 371Q195 355 210 340T242 310L453 117ZM582 0L607 27L507 120Q535 166 549 220T563 328L527 339Q527 293 514 243T475 150L277 335Q243
368 219 398T181 459T168 526Q168 560 185 589T232 637T299 655Q345 655 370 645T421 622L441 657Q418 671 379 683T290 696Q242 696 204 673T143 610T121 522Q121 488 131 459T158 404Q110 372 80 319T50 200Q50 134 81 86T166 13T286 -13Q349 -13 400 14T485
88L582 0Z" />
<glyph unicode="&apos;" horiz-adv-x="152" d="M83 702Q71 702 63 697T50 682T45 663Q45 657 49 648T61 632T81 625Q80 598 63 578T20 543L36 518Q64 532 83 553T112 601T122 659Q122 674 112 688T83 702Z" />
<glyph unicode="(" horiz-adv-x="239" d="M209 -19Q187 4 168 45T133 137T110 236T101 321Q101 357 109 404T133 501T167 591T209 657L169 675Q127 622 101 560T63 435T50 320Q50 267 62 205T101 80T169 -37L209 -19Z" />
<glyph unicode=")" horiz-adv-x="239" d="M30 657Q51 633 70 592T105 501T129 403T138 319Q138 283 130 235T106 137T71 46T30 -19L70 -37Q111 17 137 79T176 204T189 320Q189 373 176 435T137 559T70 675L30 657Z" />
<glyph unicode="*" horiz-adv-x="313" d="M172 774H137V654L22 685L10 653L125 624L46 505L82 489L156 602L235 489L266 505L187 624L303 653L290 685L172 654V774Z" />
<glyph unicode="+" horiz-adv-x="527" d="M487 292H287V531L238 534V292H30L38 255H238V8L287 4V255H497L487 292Z" />
<glyph unicode="," horiz-adv-x="152" d="M83 76Q71 76 63 71T50 56T45 37Q45 30 49 22T61 6T81 -1Q80 -28 63 -48T20 -83L36 -108Q64 -94 83 -73T112 -25T122 33Q122 48 112 62T83 76Z" />
<glyph unicode="-" horiz-adv-x="311" d="M273 292H30L38 253H281L273 292Z" />
<glyph unicode="." horiz-adv-x="137" d="M68 0Q84 0 95 11T107 38Q107 54 96 65T68 76Q51 76 41 65T30 38Q30 22 40 11T68 0Z" />
<glyph unicode="/" horiz-adv-x="375" d="M318 710L10 0L56 -4L365 706L318 710Z" />
<glyph unicode="0" horiz-adv-x="570" d="M40 288Q40 201 71 133T159 26T286 -13Q357 -13 412 26T498 133T530 289Q530 373 499 438T412 541T286 579Q215 579 159 542T72 439T40 288ZM91 291Q91 363 116 418T185 506T286 538Q342 538 385 506T454 416T479 286Q479
211 454 153T386 61T286 28Q230 28 186 62T116 155T91 291Z" />
<glyph unicode="1" horiz-adv-x="300" d="M220 0V566H185L10 481L28 445L171 508V0H220Z" />
<glyph unicode="2" horiz-adv-x="470" d="M219 579Q155 579 111 562T38 527L60 493Q78 503 100 513T152 531T217 539Q282 539 324 505T367 417Q367 385 357 359T321 304T250 238L25 50V0H450L442 39H75L270 196Q320 236 353 272T402 345T419 418Q419 465 393 501T322
558T219 579Z" />
<glyph unicode="3" horiz-adv-x="447" d="M205 579Q145 579 98 562T11 520L42 489Q66 505 107 521T202 538Q244 538 275 520T322 474T339 416Q339 359 292 323T160 286H126L136 247H154Q258 247 304 208T351 104Q351 64 328 33T269 -17T193 -35Q138 -35 103 -23T33
10L0 -24Q34 -43 84 -59T190 -76Q255 -76 302 -52T376 13T402 106Q402 147 386 180T342 237T276 268Q308 278 333 299T374 351T390 417Q390 459 370 496T308 556T205 579Z" />
<glyph unicode="4" horiz-adv-x="512" d="M492 113H375V571H347L10 125L19 74H326V-69H375V74H484L492 113ZM326 470V113H60L326 470Z" />
<glyph unicode="5" horiz-adv-x="491" d="M116 230Q136 252 171 270T247 289Q316 289 357 246T399 130Q399 58 354 12T224 -35Q178 -35 139 -23T64 10L40 -26Q64 -38 91 -49T151 -68T220 -76Q296 -76 347 -48T424 28T451 130Q451 184 430 229T363 302T243 330Q218
330 187 320T129 289L140 527H409L412 566H95L80 230H116Z" />
<glyph unicode="6" horiz-adv-x="492" d="M65 285L82 248Q97 272 123 294T183 331T253 346Q300 346 333 325T383 267T401 185Q401 147 384 111T333 52T252 28Q199 28 162 56T106 139T87 270Q87 328 106 377T157 465T229 533T311 576T393 594L375 634Q327 628 279
609T188 559T112 483T59 384T40 260Q40 172 67 111T142 19T254 -13Q313 -13 357 16T427 91T452 190Q452 241 429 286T362 359T253 387Q202 387 166 369T105 328T65 285Z" />
<glyph unicode="7" horiz-adv-x="429" d="M169 -69L409 537L387 566H10L18 527H360L123 -49L169 -69Z" />
<glyph unicode="8" horiz-adv-x="501" d="M251 643Q187 643 147 620T87 560T68 481Q68 431 99 394T177 339Q139 331 108 304T59 241T40 169Q40 119 63 78T133 12T251 -13Q322 -13 368 12T438 79T461 169Q461 211 442 246T392 306T325 339Q352 351 376 371T417
419T433 481Q433 521 415 558T356 619T251 643ZM248 602Q318 602 351 566T384 484Q384 458 368 432T323 386T251 360Q187 369 153 405T118 484Q118 514 132 541T175 585T248 602ZM251 316Q330 306 370 263T410 162Q410 124 389 94T331 46T251 28Q206 28 170 45T112
93T91 162Q91 219 131 262T251 316Z" />
<glyph unicode="9" horiz-adv-x="492" d="M427 280L410 317Q396 294 370 271T310 234T239 219Q193 219 160 240T109 299T91 380Q91 418 108 454T159 513T240 537Q294 537 330 509T386 426T405 295Q405 237 386 188T335 100T263 32T181 -11T99 -29L117 -69Q165
-63 213 -44T304 6T380 82T433 182T452 305Q452 394 425 454T350 546T238 578Q180 578 135 549T65 474T40 375Q40 325 63 280T130 206T239 178Q290 178 326 196T388 238T427 280Z" />
<glyph unicode=":" horiz-adv-x="137" d="M68 365Q84 365 95 376T107 403Q107 419 96 430T68 441Q51 441 41 430T30 403Q30 387 40 376T68 365ZM68 46Q84 46 95 57T107 84Q107 100 96 111T68 122Q51 122 41 111T30 84Q30 68 40 57T68 46Z" />
<glyph unicode=";" horiz-adv-x="152" d="M83 365Q99 365 110 376T122 403Q122 419 111 430T83 441Q66 441 56 430T45 403Q45 387 55 376T83 365ZM83 122Q71 122 63 117T50 102T45 83Q45 77 49 68T61 52T81 45Q80 18 63 -2T20 -37L36 -62Q64 -48 83 -27T112 21T122
79Q122 94 112 108T83 122Z" />
<glyph unicode="&lt;" horiz-adv-x="322" d="M302 54L76 245L302 436L279 470L30 259V231L279 19L302 54Z" />
<glyph unicode="=" horiz-adv-x="497" d="M460 371H30L38 332H467L460 371ZM460 179H30L38 140H467L460 179Z" />
<glyph unicode="&gt;" horiz-adv-x="322" d="M292 258L43 470L20 435L246 244L20 53L43 19L292 230V258Z" />
<glyph unicode="?" horiz-adv-x="392" d="M186 702Q127 702 82 683T10 641L18 600Q57 628 93 644T184 661Q241 661 275 629T309 537Q309 480 263 434T139 363L146 158L179 137L189 332Q245 357 283 390T342 462T362 538Q362 586 343 623T285 681T186 702ZM154
76Q137 76 127 65T116 38Q116 22 126 11T154 0Q170 0 181 11T193 38Q193 54 182 65T154 76Z" />
<glyph unicode="@" horiz-adv-x="760" d="M527 384L511 404H440Q397 404 358 390T290 350T244 289T227 211Q227 147 270 107T384 66Q407 66 433 75T478 99Q491 82 511 72T558 61Q596 61 625 76T676 123T709 199T720 304Q720 367 698 419T636 511T541 572T417 594Q326
594 256 564T137 481T65 360T40 213Q40 141 64 84T132 -13T231 -75T348 -96Q397 -96 445 -88T535 -58L522 -20Q502 -31 475 -39T418 -51T359 -55Q285 -55 224 -23T127 70T91 214Q91 291 115 353T182 460T285 529T414 553Q495 553 552 521T641 431T672 297Q672 231
657 188T616 124T560 102Q529 102 514 121T503 183L527 384ZM384 103Q352 103 328 116T291 153T278 211Q278 259 300 294T357 348T435 367H480L457 190Q456 176 456 159T462 125Q449 116 428 110T384 103Z" />
<glyph unicode="A" horiz-adv-x="572" d="M417 252H150L281 614L417 252ZM257 680L10 0H59L136 213H431L512 -6L562 5L303 680H257Z" />
<glyph unicode="B" horiz-adv-x="565" d="M269 0Q322 0 368 9T449 40T505 98T525 188Q525 259 487 301T386 362Q427 382 457 417T487 503Q487 571 456 609T369 664T242 680H100V0H269ZM254 641Q309 641 349 628T412 585T435 502Q435 454 408 426T337 385T241 372H150V641H254ZM292
333Q374 333 423 298T473 186Q473 134 448 102T379 54T281 39H150V333H292Z" />
<glyph unicode="C" horiz-adv-x="553" d="M523 657Q505 670 474 678T412 690T360 694Q287 694 229 667T132 590T71 476T50 336Q50 267 68 204T124 92T218 15T354 -14Q383 -14 415 -9T476 4T523 23L499 59Q472 47 438 38T349 29Q291 29 246 54T169 122T122 220T105
337Q105 433 138 503T229 612T358 651Q394 651 418 647T463 637T503 621L523 657Z" />
<glyph unicode="D" horiz-adv-x="662" d="M321 0Q421 0 485 46T580 171T612 344Q612 437 584 513T492 634T324 680H100V0H321ZM332 641Q410 641 460 600T536 492T561 343Q561 256 531 187T448 79T322 39H149V641H332Z" />
<glyph unicode="E" horiz-adv-x="495" d="M475 0L469 39H149V329H394L389 368H149V641H452L447 680H100V0H475Z" />
<glyph unicode="F" horiz-adv-x="463" d="M378 364H149V641H443L436 680H100V0H149V325H384L378 364Z" />
<glyph unicode="G" horiz-adv-x="614" d="M350 303H503V52Q478 43 448 36T381 29Q301 29 239 68T141 177T105 336Q105 405 126 463T185 563T276 629T390 653Q426 653 450 650T495 640T535 624L554 657Q536 670 505 678T441 690T388 694Q315 694 253 668T146 593T75
480T50 336Q50 237 90 158T204 32T382 -14Q411 -14 443 -8T504 8T552 31V342H356L350 303Z" />
<glyph unicode="H" horiz-adv-x="655" d="M555 0V680H506V364H149V685L100 680V0H149V325H506V0H555Z" />
<glyph unicode="I" horiz-adv-x="249" d="M149 0V680H100V0H149Z" />
<glyph unicode="J" horiz-adv-x="237" d="M98 49Q98 9 90 -12T63 -45T10 -70L34 -102Q82 -87 106 -69T139 -25T147 42V680H98V49Z" />
<glyph unicode="K" horiz-adv-x="580" d="M508 0L236 362L149 269V0H100V680H149V325L485 695L519 663L269 397L570 0H508Z" />
<glyph unicode="L" horiz-adv-x="491" d="M476 39H149V680H100V0H481L476 39Z" />
<glyph unicode="M" horiz-adv-x="723" d="M373 249L574 566V0H623V680H596L361 318L122 680H100V0H149V561L353 245L373 249Z" />
<glyph unicode="N" horiz-adv-x="658" d="M149 0V574L163 545L531 0H558V680H509V111L475 170L128 680H100V0H149Z" />
<glyph unicode="O" horiz-adv-x="707" d="M351 -14Q264 -14 196 31T89 155T50 337Q50 441 89 522T198 649T357 696Q444 696 512 651T618 527T657 345Q657 241 618 160T509 33T351 -14ZM349 27Q423 27 480 68T569 180T602 344Q602 434 571 504T484 614T358 654Q285
654 228 613T138 501T105 338Q105 248 136 178T223 67T349 27Z" />
<glyph unicode="P" horiz-adv-x="548" d="M149 0V264H252Q305 264 351 276T433 314T488 380T508 475Q508 549 476 594T389 659T263 680H100V0H149ZM275 640Q330 640 371 623T435 570T458 474Q458 418 432 380T362 322T264 303H149V640H275Z" />
<glyph unicode="Q" horiz-adv-x="707" d="M439 209L405 176L618 -24L650 1L439 209ZM357 696Q268 696 199 650T90 522T50 337Q50 235 89 156T196 31T351 -14Q440 -14 509 32T617 160T657 345Q657 447 619 526T512 651T357 696ZM105 338Q105 430 137 501T227 613T358
654Q429 654 484 614T570 504T602 344Q602 252 570 181T480 68T349 27Q278 27 223 67T137 177T105 338Z" />
<glyph unicode="R" horiz-adv-x="572" d="M265 640Q317 640 361 625T431 576T458 484Q458 428 428 393T352 341T254 325H149V640H265ZM100 680V0H149V286H252Q275 286 298 288T343 296L507 0H562L385 309Q439 330 473 373T508 486Q508 558 476 600T389 661T263 680H100Z" />
<glyph unicode="S" horiz-adv-x="504" d="M55 29Q64 22 85 15T133 1T188 -9T237 -13Q311 -13 361 8T438 68T464 157Q464 191 453 219T419 271T362 315T283 355Q224 380 184 406T123 462T102 530Q102 582 144 618T258 655Q293 655 318 650T364 637T402 621L424
657Q394 672 350 684T256 696Q192 696 146 675T75 618T50 535Q50 499 62 469T97 415T154 369T232 330Q293 305 333 280T393 226T413 160Q413 126 393 96T333 48T236 29Q203 29 172 35T114 50T70 68L55 29Z" />
<glyph unicode="T" horiz-adv-x="534" d="M519 680H10V641H242V0H291V641H524L519 680Z" />
<glyph unicode="U" horiz-adv-x="658" d="M139 680H90V239Q90 167 118 110T199 21T329 -12Q407 -12 460 20T540 110T568 239V680H519V236Q519 178 497 131T432 57T329 29Q272 29 229 56T163 131T139 236V680Z" />
<glyph unicode="V" horiz-adv-x="572" d="M60 685L10 674L269 -1H315L562 679H513L291 65L60 685Z" />
<glyph unicode="W" horiz-adv-x="812" d="M802 679L625 -1H579L407 593L255 -1H209L10 674L60 685L231 79L383 679H432L601 79L753 679H802Z" />
<glyph unicode="X" horiz-adv-x="523" d="M68 0L261 311L454 0H513L298 337L513 680H459L271 379L86 691L38 668L237 350L10 0H68Z" />
<glyph unicode="Y" horiz-adv-x="530" d="M284 0V274L520 680H463L259 321L59 689L10 668L235 269V0H284Z" />
<glyph unicode="Z" horiz-adv-x="539" d="M499 39H79L509 631L504 680H47L57 641H463L30 50L36 0H504L499 39Z" />
<glyph unicode="[" horiz-adv-x="265" d="M100 -88H255L247 -49H149V657H247L255 696H100V-88Z" />
<glyph unicode="\" horiz-adv-x="375" d="M365 0L57 710L10 706L318 -4L365 0Z" />
<glyph unicode="]" horiz-adv-x="265" d="M165 696H10L18 657H116V-49H18L10 -88H165V696Z" />
<glyph unicode="^" horiz-adv-x="417" d="M204 348L349 143H397L225 390H182L10 143H58L204 348Z" />
<glyph unicode="_" horiz-adv-x="429" d="M391 39H30L38 0H399L391 39Z" />
<glyph unicode="`" horiz-adv-x="137" d="M95 589L127 600L71 742H10L95 589Z" />
<glyph unicode="a" horiz-adv-x="475" d="M103 136Q103 181 133 212T229 244H360V109Q337 75 302 52T219 28Q183 28 157 42T117 81T103 136ZM105 423Q135 437 165 447T244 457Q303 457 331 424T360 341V281H225Q149 281 101 243T52 136Q52 73 92 30T215 -13Q261
-13 299 5T363 52L371 0H409V340Q409 388 390 423T334 478T241 498Q221 498 192 493T134 478T86 456L105 423Z" />
<glyph unicode="b" horiz-adv-x="512" d="M108 0L129 59V706L80 696V0H108ZM124 386Q150 415 181 436T263 457Q318 457 352 428T404 349T421 239Q421 183 403 135T348 57T258 28Q212 28 178 48T119 92L99 59Q113 45 138 28T194 -1T256 -13Q328 -13 376 20T448
110T472 240Q472 316 450 374T381 465T263 498Q230 498 202 489T149 462T104 420L124 386Z" />
<glyph unicode="c" horiz-adv-x="449" d="M388 62Q362 49 336 39T259 28Q205 28 168 57T111 137T91 246Q91 303 112 351T172 428T264 457Q310 457 339 446T393 423L413 456Q394 469 367 478T313 492T266 498Q195 498 144 465T67 375T40 245Q40 170 65 112T139
20T259 -13Q280 -13 307 -8T361 6T408 28L388 62Z" />
<glyph unicode="d" horiz-adv-x="512" d="M383 53L405 0H432V705L383 696V53ZM388 99Q362 70 331 49T249 28Q195 28 160 57T108 137T91 246Q91 303 109 351T164 428T254 457Q300 457 334 437T393 393L413 426Q400 441 375 457T319 486T256 498Q185 498 137 465T64
375T40 245Q40 170 62 112T131 20T249 -13Q282 -13 310 -4T363 24T408 65L388 99Z" />
<glyph unicode="e" horiz-adv-x="480" d="M440 242V250Q440 321 416 377T349 465T252 498Q181 498 134 465T63 375T40 245Q40 170 64 112T140 20T270 -13Q290 -13 318 -9T376 4T425 25L405 62Q380 49 348 39T262 28Q202 28 165 57T110 135T91 242H440ZM93 279Q98
327 115 367T165 432T245 457Q293 457 323 433T368 368T388 279H93Z" />
<glyph unicode="f" horiz-adv-x="264" d="M20 433H93V0H142V433H251L230 470H142V579Q142 615 157 638T211 661Q221 661 233 658T252 652L264 689Q258 692 248 695T225 700T198 702Q162 702 139 685T104 637T93 563V470H20V433Z" />
<glyph unicode="g" horiz-adv-x="508" d="M432 485H405L383 412V-72Q383 -132 341 -160T238 -189Q192 -189 160 -179T94 -154L75 -189Q89 -198 110 -205T156 -218T203 -227T240 -230Q304 -230 346 -208T410 -148T432 -62V485ZM388 99Q362 70 331 49T249 28Q195
28 160 57T108 137T91 246Q91 303 109 351T164 428T254 457Q300 457 334 437T393 393L413 426Q400 441 375 457T319 486T256 498Q185 498 137 465T64 375T40 245Q40 170 62 112T131 20T249 -13Q282 -13 310 -4T363 24T408 65L388 99Z" />
<glyph unicode="h" horiz-adv-x="510" d="M129 359Q157 388 186 410T245 444T304 457Q359 457 377 422T395 337V0H444V337Q444 384 430 420T384 477T300 498Q270 498 238 486T178 453T128 409L129 359ZM129 0V706L80 696V0H129Z" />
<glyph unicode="i" horiz-adv-x="189" d="M119 0V485H70V0H119ZM94 600Q111 600 122 611T133 638Q133 654 122 665T94 676Q77 676 67 665T56 638Q56 622 66 611T94 600Z" />
<glyph unicode="j" horiz-adv-x="206" d="M101 600Q90 600 81 605T68 619T63 638Q63 654 73 665T101 676Q117 676 128 665T140 638Q140 622 129 611T101 600ZM126 485V-62Q126 -104 119 -133T89 -183T18 -219L0 -183Q34 -170 50 -155T71 -116T77 -54V485H126Z" />
<glyph unicode="k" horiz-adv-x="449" d="M129 0V206L203 280L390 0H449L236 313L391 467L354 498L129 264V706L80 696V0H129Z" />
<glyph unicode="l" horiz-adv-x="209" d="M129 0V706L80 696V0H129Z" />
<glyph unicode="m" horiz-adv-x="776" d="M119 0V359Q147 388 176 410T234 444T289 457Q323 457 340 441T364 398T370 337V0H419V337Q419 384 406 420T364 477T285 498Q260 498 229 486T168 453T118 409L108 485H70V0H119ZM410 359Q438 388 467 410T525 444T580
457Q614 457 631 441T655 398T661 337V0H710V337Q710 384 697 420T655 477T576 498Q551 498 520 486T459 453T409 409L410 359Z" />
<glyph unicode="n" horiz-adv-x="500" d="M119 0V359Q147 388 176 410T235 444T294 457Q349 457 367 422T385 337V0H434V337Q434 384 420 420T374 477T290 498Q260 498 228 486T168 453T118 409L108 485H70V0H119Z" />
<glyph unicode="o" horiz-adv-x="523" d="M259 -13Q187 -12 139 21T65 112T40 245Q40 317 66 374T143 464T265 498Q337 498 385 465T458 373T483 240Q483 168 457 111T380 21T259 -13ZM259 28Q313 28 351 57T411 134T432 239Q432 299 413 348T356 427T264 457Q211
457 172 428T112 351T91 246Q91 187 110 137T167 58T259 28Z" />
<glyph unicode="p" horiz-adv-x="508" d="M125 -208V418L104 485H76V-219L125 -208ZM120 386Q146 415 177 436T259 457Q314 457 348 428T400 349T417 239Q417 183 399 135T344 57T254 28Q208 28 174 48T115 92L95 59Q109 45 134 28T190 -1T252 -13Q324 -13 372
20T444 110T468 240Q468 316 446 374T377 465T259 498Q226 498 198 489T145 462T100 420L120 386Z" />
<glyph unicode="q" horiz-adv-x="508" d="M405 485L383 419V-219L432 -208V485H405ZM388 99Q362 70 331 49T249 28Q195 28 160 57T108 137T91 246Q91 303 109 351T164 428T254 457Q300 457 334 437T393 393L413 426Q400 441 375 457T319 486T256 498Q185 498 137
465T64 375T40 245Q40 170 62 112T131 20T249 -13Q282 -13 310 -4T363 24T408 65L388 99Z" />
<glyph unicode="r" horiz-adv-x="302" d="M119 0V357Q138 378 166 398T228 433T292 447L275 485Q250 485 220 472T162 441T116 408L98 485H70V0H119Z" />
<glyph unicode="s" horiz-adv-x="406" d="M42 25Q61 13 87 5T141 -8T189 -13Q282 -13 324 23T366 123Q366 157 346 183T292 230T219 266Q169 286 133 310T97 368Q97 403 128 430T210 457Q255 457 284 445T334 423L354 458Q338 470 314 479T264 493T217 498Q135
498 93 460T50 364Q50 333 69 308T121 263T191 229Q227 215 256 199T302 163T319 119Q319 92 304 72T260 40T191 28Q166 28 143 34T99 49T60 66L42 25Z" />
<glyph unicode="t" horiz-adv-x="292" d="M229 470H141V623L92 601V470H20V433H92V116Q92 74 105 46T141 2T196 -13Q209 -13 221 -11T244 -6T262 -1L250 37Q245 35 233 32T209 28Q172 28 157 57T141 123V433H250L229 470Z" />
<glyph unicode="u" horiz-adv-x="500" d="M381 485V126Q353 98 324 76T265 41T206 28Q151 28 133 63T115 148V485H66V148Q66 102 80 66T126 8T210 -13Q240 -13 272 -1T333 31T382 76L392 0H430V485H381Z" />
<glyph unicode="v" horiz-adv-x="430" d="M240 0L420 485H370L216 56L56 492L10 474L193 0H240Z" />
<glyph unicode="w" horiz-adv-x="642" d="M488 0L632 485H582L466 64L340 485H298L175 64L56 491L10 473L153 0H200L315 409L441 0H488Z" />
<glyph unicode="x" horiz-adv-x="405" d="M66 0L196 207L327 0H382L235 232L395 485H341L209 267L73 494L30 474L171 244L10 0H66Z" />
<glyph unicode="y" horiz-adv-x="430" d="M162 -98Q154 -120 141 -135T108 -161T63 -181L68 -219Q100 -212 126 -198T172 -161T201 -112L420 485H370L216 56L56 491L10 473L193 0L162 -98Z" />
<glyph unicode="z" horiz-adv-x="432" d="M401 485H57L73 448H350L28 31L36 0H398L388 37H79L404 453L401 485Z" />
<glyph unicode="{" horiz-adv-x="265" d="M129 307Q154 319 173 347T193 419Q193 432 189 449T174 489Q164 511 160 529T155 560Q155 581 172 600T227 620H246L255 659H229Q166 659 136 631T105 554Q105 538 109 520T123 482Q132 462 136 444T141 410Q141 373
117 350T63 326H30V288H63Q93 288 117 265T141 204Q141 188 137 170T123 132Q114 112 110 94T105 60Q105 12 135 -16T229 -45H255L246 -6H227Q190 -6 173 13T155 54Q155 68 159 85T174 125Q184 147 188 164T193 195Q193 239 174 267T129 307Z" />
<glyph unicode="|" horiz-adv-x="249" d="M100 710V0L149 -4V706L100 710Z" />
<glyph unicode="}" horiz-adv-x="265" d="M136 307Q111 295 92 267T72 195Q72 182 76 165T91 125Q101 103 105 86T110 54Q110 33 93 14T38 -6H19L10 -45H36Q99 -45 129 -17T160 60Q160 76 156 94T142 132Q133 152 129 170T124 204Q124 241 148 264T202 288H235V326H202Q172
326 148 349T124 410Q124 426 128 444T142 482Q151 502 155 520T160 554Q160 602 130 630T36 659H10L19 620H38Q75 620 92 601T110 560Q110 547 106 529T91 489Q81 467 77 450T72 419Q72 375 91 347T136 307Z" />
<glyph unicode="~" horiz-adv-x="374" d="M30 215H70Q70 234 84 245T117 257Q134 257 152 251T188 233Q206 221 223 215T258 209Q284 209 303 219T333 247T344 289H304Q304 270 290 259T257 247Q244 247 229 253T195 271Q177 283 158 289T117 295Q91 295 71 285T41
257T30 215Z" />
<glyph unicode="&#xa0;" horiz-adv-x="240" />
<glyph unicode="&#xa1;" horiz-adv-x="138" d="M70 626Q87 626 97 637T108 664Q108 680 98 691T70 702Q54 702 43 691T31 664Q31 648 42 637T70 626ZM84 517L39 538L30 0H84V517Z" />
<glyph unicode="&#xa2;" horiz-adv-x="449" d="M284 477V605L240 595V477H284ZM284 0H240V-111H284V0ZM388 62Q362 49 336 39T259 28Q205 28 168 57T111 137T91 246Q91 303 112 351T172 428T264 457Q310 457 339 446T393 423L413 456Q394 469 367 478T313 492T266
498Q195 498 144 465T67 375T40 245Q40 170 65 112T139 20T259 -13Q280 -13 307 -8T361 6T408 28L388 62Z" />
<glyph unicode="&#xa3;" horiz-adv-x="426" d="M70 0H416L410 39H148Q170 58 176 83T182 143V334H344L322 371H182V561Q182 597 197 620T251 643Q261 643 273 640T292 634L304 671Q298 674 288 677T265 682T238 684Q202 684 179 667T145 619T133 545V371H60L62
334H133V122Q133 86 119 63T68 39L70 0Z" />
<glyph unicode="&#xa4;" horiz-adv-x="661" d="M59 -54L164 48Q195 19 235 3T325 -13Q376 -13 419 4T493 51L602 -54L631 -22L523 84Q548 116 561 156T574 239Q574 284 562 325T526 401L631 505L602 537L497 435Q467 464 426 481T335 498Q284 498 241 481T165
434L59 537L30 505L136 401Q112 369 100 330T87 246Q87 198 99 157T135 82L30 -22L59 -54ZM523 239Q523 181 498 133T428 57T325 28Q271 28 229 56T163 134T138 246Q138 303 163 351T232 428T335 457Q395 457 437 427T501 347T523 239Z" />
<glyph unicode="&#xa5;" horiz-adv-x="530" d="M62 298L67 259H468L463 298H62ZM62 129L67 90H468L463 129H62ZM284 0V274L520 680H463L259 321L59 689L10 668L235 269V0H284Z" />
<glyph unicode="&#xa6;" horiz-adv-x="249" d="M100 710V410L149 406V706L100 710ZM100 292V0L149 -4V288L100 292Z" />
<glyph unicode="&#xa7;" horiz-adv-x="570" d="M432 95Q464 109 486 131T519 181T530 241Q530 275 519 303T485 355T428 399T349 439Q290 464 250 490T189 546T168 614Q168 666 210 702T324 739Q359 739 384 734T430 721T468 705L490 741Q460 756 416 768T322
780Q258 780 212 759T141 702T116 619Q116 583 128 553T163 499T220 453T298 414Q359 389 399 364T459 310T479 244Q479 213 464 186T417 141L432 95ZM55 -77Q64 -84 85 -91T133 -105T188 -115T237 -119Q311 -119 361 -98T438 -38T464 51Q464 85 453 113T419 165T362
209T283 249Q224 274 184 300T123 356T102 424Q102 456 119 484T167 528L147 569Q116 556 95 535T62 487T50 429Q50 393 62 363T97 309T154 263T232 224Q293 199 333 174T393 120T413 54Q413 20 393 -10T333 -58T236 -77Q203 -77 172 -71T114 -56T70 -38L55 -77Z"
/>
<glyph unicode="&#xa8;" horiz-adv-x="253" d="M47 618Q62 618 73 628T84 655Q84 671 73 681T47 691Q30 691 20 681T10 655Q10 639 20 629T47 618ZM206 618Q221 618 232 628T243 655Q243 671 232 681T206 691Q189 691 179 681T169 655Q169 639 179 629T206 618Z" />
<glyph unicode="&#xa9;" horiz-adv-x="787" d="M747 336Q747 411 722 474T650 585T538 659T393 686Q312 686 247 660T136 586T65 475T40 336Q40 262 64 199T133 88T244 15T393 -12Q473 -12 538 14T650 88T722 198T747 336ZM87 337Q87 425 124 495T231 606T393
648Q487 648 555 607T662 495T700 337Q700 250 662 179T556 67T393 25Q300 25 231 66T125 179T87 337ZM406 120Q426 120 450 125T496 140T533 162L513 193Q493 180 465 170T404 159Q337 159 293 207T249 341Q249 398 269 438T324 501T404 523Q426 523 446 518T483
506T513 489L533 520Q519 533 497 542T450 556T406 562Q350 562 303 537T228 463T200 341Q200 269 228 220T303 145T406 120Z" />
<glyph unicode="&#xaa;" horiz-adv-x="332" d="M85 466Q85 494 105 513T169 533H246V447Q230 425 207 411T155 397Q123 397 104 419T85 466ZM74 641Q92 648 112 655T166 663Q206 663 226 642T246 587V564H160Q109 564 75 538T40 466Q40 423 70 393T155 363Q181
363 206 375T249 408L260 372H292V580Q292 612 278 639T236 684T165 702Q152 702 133 699T94 689T62 673L74 641Z" />
<glyph unicode="&#xab;" horiz-adv-x="363" d="M182 229L322 84L343 115L220 245L343 375L322 406L182 261V229ZM30 229L170 84L191 115L69 245L191 375L170 406L30 261V229Z" />
<glyph unicode="&#xac;" horiz-adv-x="505" d="M467 406H10L18 367H426V117L475 112V356L467 406Z" />
<glyph unicode="&#xad;" horiz-adv-x="120" />
<glyph unicode="&#xae;" horiz-adv-x="715" d="M675 487Q675 575 635 645T523 757T358 798Q263 798 191 757T80 646T40 487Q40 400 80 330T193 219T358 178Q452 178 523 219T634 330T675 487ZM88 488Q88 566 121 627T215 724T358 760Q440 760 500 725T593 628T626
488Q626 412 593 351T500 253T358 215Q276 216 215 252T121 350T88 488ZM337 647Q366 647 388 642T424 620T437 571Q437 541 423 524T384 501T332 494H297V647H337ZM505 304L407 469Q435 481 457 507T480 572Q480 612 463 635T415 669T344 680H257V304H297V462H339Q346
462 353 462T368 463L458 304H505Z" />
<glyph unicode="&#xaf;" horiz-adv-x="261" d="M10 640H251L245 677H10V640Z" />
<glyph unicode="&#xb0;" horiz-adv-x="243" d="M116 702Q86 702 62 688T24 651T10 599Q10 569 24 547T62 511T116 498Q147 498 171 511T209 546T223 599Q223 628 209 651T171 688T116 702ZM120 529Q88 529 69 552T50 600Q50 625 67 647T116 670Q147 670 165 648T184
600Q184 575 169 552T120 529Z" />
<glyph unicode="&#xb1;" horiz-adv-x="492" d="M447 345H266V531L217 534V345H30L38 308H217V113L266 108V308H455L447 345ZM454 37H30L38 0H462L454 37Z" />
<glyph unicode="&#xb2;" horiz-adv-x="342" d="M172 771Q148 771 122 766T71 751T29 733L46 702Q59 708 80 716T126 730T170 736Q204 736 224 722T254 687T263 647Q263 625 247 593T181 515L25 373V336H322L316 369H76L207 485Q261 534 284 572T308 653Q308 681
294 708T249 753T172 771Z" />
<glyph unicode="&#xb3;" horiz-adv-x="354" d="M155 771Q109 771 74 759T9 727L31 697Q50 709 80 722T154 735Q200 735 227 710T254 650Q254 622 241 600T202 565T133 552H96L103 519H128Q206 519 235 492T264 415Q264 385 248 363T204 329T147 317Q104 317 77
325T24 350L0 318Q26 303 63 291T143 278Q196 278 233 296T289 346T309 416Q309 448 299 473T269 515T220 538Q243 546 261 562T289 601T300 651Q300 700 265 735T155 771Z" />
<glyph unicode="&#xb4;" horiz-adv-x="137" d="M42 589L127 742H66L10 600L42 589Z" />
<glyph unicode="&#xb5;" horiz-adv-x="510" d="M125 -208V418L76 398V-219L125 -208ZM391 485V126Q363 98 334 76T275 41T216 28Q161 28 143 63T125 148V485H76V148Q76 102 90 66T136 8T220 -13Q250 -13 282 -1T343 31T392 76L402 0H440V485H391Z" />
<glyph unicode="&#xb6;" horiz-adv-x="808" d="M383 0V641H607V0H656V641H768V680H285Q214 680 159 658T72 590T40 475Q40 423 60 384T115 318T196 278T296 264H334V0H383Z" />
<glyph unicode="&#xb7;" horiz-adv-x="137" d="M68 224Q84 224 95 235T107 262Q107 278 96 289T68 300Q51 300 41 289T30 262Q30 246 40 235T68 224Z" />
<glyph unicode="&#xb8;" horiz-adv-x="206" d="M55 -77Q87 -77 109 -86T142 -110T154 -138Q154 -157 135 -171T84 -185Q68 -185 51 -180T25 -171L10 -202Q23 -210 46 -215T87 -221Q120 -221 144 -211T182 -181T196 -136Q196 -118 186 -101T156 -70T105 -51L130
13H89L55 -77Z" />
<glyph unicode="&#xb9;" horiz-adv-x="240" d="M160 336V765H136L10 700L33 675L117 716V336H160Z" />
<glyph unicode="&#xba;" horiz-adv-x="344" d="M171 702Q132 702 98 681T42 622T20 532Q20 478 41 441T97 383T172 363Q213 363 247 383T303 442T324 532Q324 586 303 624T246 682T171 702ZM171 667Q217 667 248 631T279 532Q279 489 264 459T224 414T172 399Q130
399 98 434T65 532Q65 576 80 606T120 651T171 667Z" />
<glyph unicode="&#xbb;" horiz-adv-x="363" d="M181 261L41 406L20 375L143 245L20 115L41 84L181 229V261ZM333 261L193 406L172 375L294 245L172 115L193 84L333 229V261Z" />
<glyph unicode="&#xbc;" horiz-adv-x="710" d="M160 336V765H136L10 700L33 675L117 716V336H160ZM690 -32H605V320H577L324 -32L328 -66H561V-164H605V-66H686L690 -32ZM561 237V-32H371L561 237ZM531 700L25 -134H75L576 700H531Z" />
<glyph unicode="&#xbd;" horiz-adv-x="758" d="M160 336V765H136L10 700L33 675L117 716V336H160ZM588 325Q564 325 538 320T487 305T445 287L462 256Q475 262 496 270T542 284T586 290Q620 290 640 276T670 241T679 201Q679 179 663 147T597 69L441 -73V-110H738L732
-77H492L623 39Q677 88 700 126T724 207Q724 235 710 262T665 307T588 325ZM541 700L35 -134H85L586 700H541Z" />
<glyph unicode="&#xbe;" horiz-adv-x="773" d="M155 771Q109 771 74 759T9 727L31 697Q50 709 80 722T154 735Q200 735 227 710T254 650Q254 622 241 600T202 565T133 552H96L103 519H128Q206 519 235 492T264 415Q264 385 248 363T204 329T147 317Q104 317 77
325T24 350L0 318Q26 303 63 291T143 278Q196 278 233 296T289 346T309 416Q309 448 299 473T269 515T220 538Q243 546 261 562T289 601T300 651Q300 700 265 735T155 771ZM621 700L115 -134H165L666 700H621ZM753 -32H668V320H640L387 -32L391 -66H624V-164H668V-66H749L753
-32ZM624 237V-32H434L624 237Z" />
<glyph unicode="&#xbf;" horiz-adv-x="392" d="M238 546Q255 546 265 557T276 584Q276 600 266 611T238 622Q222 622 211 611T199 584Q199 568 210 557T238 546ZM206 -80Q265 -80 310 -61T382 -19L374 22Q335 -6 299 -22T208 -39Q151 -39 117 -7T83 85Q83 142
129 188T253 259L246 464L213 485L203 290Q148 266 109 232T50 160T30 84Q30 36 49 -1T107 -59T206 -80Z" />
<glyph unicode="&#xc0;" horiz-adv-x="572" d="M417 252H150L281 614L417 252ZM257 680L10 0H59L136 213H431L512 -6L562 5L303 680H257ZM286 739L318 750L262 892H201L286 739Z" />
<glyph unicode="&#xc1;" horiz-adv-x="572" d="M417 252H150L281 614L417 252ZM257 680L10 0H59L136 213H431L512 -6L562 5L303 680H257ZM281 739L366 892H305L249 750L281 739Z" />
<glyph unicode="&#xc2;" horiz-adv-x="572" d="M417 252H150L281 614L417 252ZM257 680L10 0H59L136 213H431L512 -6L562 5L303 680H257ZM288 858L371 740L412 754L307 893H267L161 750L202 740L288 858Z" />
<glyph unicode="&#xc3;" horiz-adv-x="572" d="M417 252H150L281 614L417 252ZM257 680L10 0H59L136 213H431L512 -6L562 5L303 680H257ZM377 849Q375 826 364 811T332 796Q319 796 307 803T284 825Q273 839 257 846T219 853Q197 853 178 844T148 814T136 762H175Q177
785 187 800T220 815Q233 815 246 808T272 787Q285 773 300 766T332 758Q355 758 373 767T403 797T415 849H377Z" />
<glyph unicode="&#xc4;" horiz-adv-x="572" d="M417 252H150L281 614L417 252ZM257 680L10 0H59L136 213H431L512 -6L562 5L303 680H257ZM199 768Q214 768 225 778T236 805Q236 821 225 831T199 841Q182 841 172 831T162 805Q162 789 172 779T199 768ZM358 768Q373
768 384 778T395 805Q395 821 384 831T358 841Q341 841 331 831T321 805Q321 789 331 779T358 768Z" />
<glyph unicode="&#xc5;" horiz-adv-x="572" d="M417 252H150L281 614L417 252ZM257 680L10 0H59L136 213H431L512 -6L562 5L303 680H257ZM279 909Q255 909 235 898T203 868T190 825Q190 790 216 767T279 744Q303 744 323 754T355 783T367 825Q367 849 355 868T323
898T279 909ZM279 774Q257 774 243 788T229 825Q229 848 243 863T279 878Q301 878 314 863T328 825Q328 803 315 789T279 774Z" />
<glyph unicode="&#xc6;" horiz-adv-x="829" d="M434 0H809L803 39H483V329H728L723 368H483V641H786L781 680H426L10 5L60 -5L190 213H434V0ZM434 611V252H214L434 611Z" />
<glyph unicode="&#xc7;" horiz-adv-x="553" d="M523 657Q505 670 474 678T412 690T360 694Q287 694 229 667T132 590T71 476T50 336Q50 267 68 204T124 92T218 15T354 -14Q383 -14 415 -9T476 4T523 23L499 59Q472 47 438 38T349 29Q291 29 246 54T169 122T122
220T105 337Q105 433 138 503T229 612T358 651Q394 651 418 647T463 637T503 621L523 657ZM305 -77Q337 -77 359 -86T392 -110T404 -138Q404 -157 385 -171T334 -185Q318 -185 301 -180T275 -171L260 -202Q273 -210 296 -215T337 -221Q370 -221 394 -211T432 -181T446
-136Q446 -118 436 -101T406 -70T355 -51L380 13H339L305 -77Z" />
<glyph unicode="&#xc8;" horiz-adv-x="495" d="M475 0L469 39H149V329H394L389 368H149V641H452L447 680H100V0H475ZM280 739L312 750L256 892H195L280 739Z" />
<glyph unicode="&#xc9;" horiz-adv-x="495" d="M475 0L469 39H149V329H394L389 368H149V641H452L447 680H100V0H475ZM275 739L360 892H299L243 750L275 739Z" />
<glyph unicode="&#xca;" horiz-adv-x="495" d="M475 0L469 39H149V329H394L389 368H149V641H452L447 680H100V0H475ZM282 858L365 740L406 754L301 893H261L155 750L196 740L282 858Z" />
<glyph unicode="&#xcb;" horiz-adv-x="495" d="M475 0L469 39H149V329H394L389 368H149V641H452L447 680H100V0H475ZM193 768Q208 768 219 778T230 805Q230 821 219 831T193 841Q176 841 166 831T156 805Q156 789 166 779T193 768ZM352 768Q367 768 378 778T389
805Q389 821 378 831T352 841Q335 841 325 831T315 805Q315 789 325 779T352 768Z" />
<glyph unicode="&#xcc;" horiz-adv-x="249" d="M149 0V680H100V0H149ZM130 739L162 750L106 892H45L130 739Z" />
<glyph unicode="&#xcd;" horiz-adv-x="249" d="M149 0V680H100V0H149ZM125 739L210 892H149L93 750L125 739Z" />
<glyph unicode="&#xce;" horiz-adv-x="249" d="M149 0V680H100V0H149ZM388 858L471 740L512 754L407 893H367L261 750L302 740L388 858Z" />
<glyph unicode="&#xcf;" horiz-adv-x="249" d="M149 0V680H100V0H149ZM299 768Q314 768 325 778T336 805Q336 821 325 831T299 841Q282 841 272 831T262 805Q262 789 272 779T299 768ZM458 768Q473 768 484 778T495 805Q495 821 484 831T458 841Q441 841 431 831T421
805Q421 789 431 779T458 768Z" />
<glyph unicode="&#xd0;" horiz-adv-x="662" d="M268 314L258 353H10L20 314H268ZM321 0Q421 0 485 46T580 171T612 344Q612 437 584 513T492 634T324 680H100V0H321ZM332 641Q410 641 460 600T536 492T561 343Q561 256 531 187T448 79T322 39H149V641H332Z" />
<glyph unicode="&#xd1;" horiz-adv-x="658" d="M149 0V574L163 545L531 0H558V680H509V111L475 170L128 680H100V0H149ZM426 849Q424 826 413 811T381 796Q368 796 356 803T333 825Q322 839 306 846T268 853Q246 853 227 844T197 814T185 762H224Q226 785 236
800T269 815Q282 815 295 808T321 787Q334 773 349 766T381 758Q404 758 422 767T452 797T464 849H426Z" />
<glyph unicode="&#xd2;" horiz-adv-x="707" d="M351 -14Q264 -14 196 31T89 155T50 337Q50 441 89 522T198 649T357 696Q444 696 512 651T618 527T657 345Q657 241 618 160T509 33T351 -14ZM349 27Q423 27 480 68T569 180T602 344Q602 434 571 504T484 614T358
654Q285 654 228 613T138 501T105 338Q105 248 136 178T223 67T349 27ZM362 739L394 750L338 892H277L362 739Z" />
<glyph unicode="&#xd3;" horiz-adv-x="707" d="M351 -14Q264 -14 196 31T89 155T50 337Q50 441 89 522T198 649T357 696Q444 696 512 651T618 527T657 345Q657 241 618 160T509 33T351 -14ZM349 27Q423 27 480 68T569 180T602 344Q602 434 571 504T484 614T358
654Q285 654 228 613T138 501T105 338Q105 248 136 178T223 67T349 27ZM357 739L442 892H381L325 750L357 739Z" />
<glyph unicode="&#xd4;" horiz-adv-x="707" d="M351 -14Q264 -14 196 31T89 155T50 337Q50 441 89 522T198 649T357 696Q444 696 512 651T618 527T657 345Q657 241 618 160T509 33T351 -14ZM349 27Q423 27 480 68T569 180T602 344Q602 434 571 504T484 614T358
654Q285 654 228 613T138 501T105 338Q105 248 136 178T223 67T349 27ZM364 858L447 740L488 754L383 893H343L237 750L278 740L364 858Z" />
<glyph unicode="&#xd5;" horiz-adv-x="707" d="M351 -14Q264 -14 196 31T89 155T50 337Q50 441 89 522T198 649T357 696Q444 696 512 651T618 527T657 345Q657 241 618 160T509 33T351 -14ZM349 27Q423 27 480 68T569 180T602 344Q602 434 571 504T484 614T358
654Q285 654 228 613T138 501T105 338Q105 248 136 178T223 67T349 27ZM453 849Q451 826 440 811T408 796Q395 796 383 803T360 825Q349 839 333 846T295 853Q273 853 254 844T224 814T212 762H251Q253 785 263 800T296 815Q309 815 322 808T348 787Q361 773 376
766T408 758Q431 758 449 767T479 797T491 849H453Z" />
<glyph unicode="&#xd6;" horiz-adv-x="707" d="M351 -14Q264 -14 196 31T89 155T50 337Q50 441 89 522T198 649T357 696Q444 696 512 651T618 527T657 345Q657 241 618 160T509 33T351 -14ZM349 27Q423 27 480 68T569 180T602 344Q602 434 571 504T484 614T358
654Q285 654 228 613T138 501T105 338Q105 248 136 178T223 67T349 27ZM275 768Q290 768 301 778T312 805Q312 821 301 831T275 841Q258 841 248 831T238 805Q238 789 248 779T275 768ZM434 768Q449 768 460 778T471 805Q471 821 460 831T434 841Q417 841 407 831T397
805Q397 789 407 779T434 768Z" />
<glyph unicode="&#xd7;" horiz-adv-x="470" d="M257 245L423 31H374L231 207L81 31H30L213 250L47 464H96L236 288L389 464H440L257 245Z" />
<glyph unicode="&#xd8;" horiz-adv-x="707" d="M351 -14Q264 -14 196 31T89 155T50 337Q50 441 89 522T198 649T357 696Q444 696 512 651T618 527T657 345Q657 241 618 160T509 33T351 -14ZM349 27Q423 27 480 68T569 180T602 344Q602 434 571 504T484 614T358
654Q285 654 228 613T138 501T105 338Q105 248 136 178T223 67T349 27ZM251 37L207 58L456 642L504 629L251 37Z" />
<glyph unicode="&#xd9;" horiz-adv-x="658" d="M139 680H90V239Q90 167 118 110T199 21T329 -12Q407 -12 460 20T540 110T568 239V680H519V236Q519 178 497 131T432 57T329 29Q272 29 229 56T163 131T139 236V680ZM334 739L366 750L310 892H249L334 739Z" />
<glyph unicode="&#xda;" horiz-adv-x="658" d="M139 680H90V239Q90 167 118 110T199 21T329 -12Q407 -12 460 20T540 110T568 239V680H519V236Q519 178 497 131T432 57T329 29Q272 29 229 56T163 131T139 236V680ZM329 739L414 892H353L297 750L329 739Z" />
<glyph unicode="&#xdb;" horiz-adv-x="658" d="M139 680H90V239Q90 167 118 110T199 21T329 -12Q407 -12 460 20T540 110T568 239V680H519V236Q519 178 497 131T432 57T329 29Q272 29 229 56T163 131T139 236V680ZM336 858L419 740L460 754L355 893H315L209 750L250
740L336 858Z" />
<glyph unicode="&#xdc;" horiz-adv-x="658" d="M139 680H90V239Q90 167 118 110T199 21T329 -12Q407 -12 460 20T540 110T568 239V680H519V236Q519 178 497 131T432 57T329 29Q272 29 229 56T163 131T139 236V680ZM247 768Q262 768 273 778T284 805Q284 821 273
831T247 841Q230 841 220 831T210 805Q210 789 220 779T247 768ZM406 768Q421 768 432 778T443 805Q443 821 432 831T406 841Q389 841 379 831T369 805Q369 789 379 779T406 768Z" />
<glyph unicode="&#xdd;" horiz-adv-x="530" d="M284 0V274L520 680H463L259 321L59 689L10 668L235 269V0H284ZM259 739L344 892H283L227 750L259 739Z" />
<glyph unicode="&#xde;" horiz-adv-x="548" d="M263 600Q334 600 389 580T476 514T508 395Q508 340 488 300T433 235T352 197T252 184H149V0H100V680H149V600H263ZM264 223Q318 223 362 242T432 299T458 394Q458 453 435 489T371 543T275 560H149V223H264Z" />
<glyph unicode="&#xdf;" horiz-adv-x="544" d="M80 0H130V473Q130 519 146 556T196 616T279 639Q333 639 373 604T413 502Q413 439 376 406T248 372H221V333H266Q348 333 397 298T447 186Q447 134 422 102T353 54T256 39H205V0H243Q314 0 372 17T464 75T499 188Q499
232 482 266T435 323T369 356Q399 369 420 389T453 439T465 503Q465 561 440 600T371 660T276 680Q214 680 170 655T103 584T80 473V0Z" />
<glyph unicode="&#xe0;" horiz-adv-x="475" d="M103 136Q103 181 133 212T229 244H360V109Q337 75 302 52T219 28Q183 28 157 42T117 81T103 136ZM105 423Q135 437 165 447T244 457Q303 457 331 424T360 341V281H225Q149 281 101 243T52 136Q52 73 92 30T215 -13Q261
-13 299 5T363 52L371 0H409V340Q409 388 390 423T334 478T241 498Q221 498 192 493T134 478T86 456L105 423ZM243 589L275 600L219 742H158L243 589Z" />
<glyph unicode="&#xe1;" horiz-adv-x="475" d="M103 136Q103 181 133 212T229 244H360V109Q337 75 302 52T219 28Q183 28 157 42T117 81T103 136ZM105 423Q135 437 165 447T244 457Q303 457 331 424T360 341V281H225Q149 281 101 243T52 136Q52 73 92 30T215 -13Q261
-13 299 5T363 52L371 0H409V340Q409 388 390 423T334 478T241 498Q221 498 192 493T134 478T86 456L105 423ZM229 589L314 742H253L197 600L229 589Z" />
<glyph unicode="&#xe2;" horiz-adv-x="475" d="M103 136Q103 181 133 212T229 244H360V109Q337 75 302 52T219 28Q183 28 157 42T117 81T103 136ZM105 423Q135 437 165 447T244 457Q303 457 331 424T360 341V281H225Q149 281 101 243T52 136Q52 73 92 30T215 -13Q261
-13 299 5T363 52L371 0H409V340Q409 388 390 423T334 478T241 498Q221 498 192 493T134 478T86 456L105 423ZM251 707L334 589L375 603L270 742H230L124 599L165 589L251 707Z" />
<glyph unicode="&#xe3;" horiz-adv-x="475" d="M103 136Q103 181 133 212T229 244H360V109Q337 75 302 52T219 28Q183 28 157 42T117 81T103 136ZM105 423Q135 437 165 447T244 457Q303 457 331 424T360 341V281H225Q149 281 101 243T52 136Q52 73 92 30T215 -13Q261
-13 299 5T363 52L371 0H409V340Q409 388 390 423T334 478T241 498Q221 498 192 493T134 478T86 456L105 423ZM342 699Q340 676 329 661T297 646Q284 646 272 653T249 675Q238 689 222 696T184 703Q162 703 143 694T113 664T101 612H140Q142 635 152 650T185 665Q198
665 211 658T237 637Q250 623 265 616T297 608Q320 608 338 617T368 647T380 699H342Z" />
<glyph unicode="&#xe4;" horiz-adv-x="475" d="M103 136Q103 181 133 212T229 244H360V109Q337 75 302 52T219 28Q183 28 157 42T117 81T103 136ZM105 423Q135 437 165 447T244 457Q303 457 331 424T360 341V281H225Q149 281 101 243T52 136Q52 73 92 30T215 -13Q261
-13 299 5T363 52L371 0H409V340Q409 388 390 423T334 478T241 498Q221 498 192 493T134 478T86 456L105 423ZM164 618Q179 618 190 628T201 655Q201 671 190 681T164 691Q147 691 137 681T127 655Q127 639 137 629T164 618ZM323 618Q338 618 349 628T360 655Q360
671 349 681T323 691Q306 691 296 681T286 655Q286 639 296 629T323 618Z" />
<glyph unicode="&#xe5;" horiz-adv-x="475" d="M103 136Q103 181 133 212T229 244H360V109Q337 75 302 52T219 28Q183 28 157 42T117 81T103 136ZM105 423Q135 437 165 447T244 457Q303 457 331 424T360 341V281H225Q149 281 101 243T52 136Q52 73 92 30T215 -13Q261
-13 299 5T363 52L371 0H409V340Q409 388 390 423T334 478T241 498Q221 498 192 493T134 478T86 456L105 423ZM238 759Q214 759 194 748T162 718T149 675Q149 640 175 617T238 594Q262 594 282 604T314 633T326 675Q326 699 314 718T282 748T238 759ZM238 624Q216
624 202 638T188 675Q188 698 202 713T238 728Q260 728 273 713T287 675Q287 653 274 639T238 624Z" />
<glyph unicode="&#xe6;" horiz-adv-x="795" d="M755 242H406Q407 184 424 136T479 58T577 28Q630 28 662 38T720 62L740 25Q720 13 691 5T634 -8T585 -13Q517 -13 471 11T396 79Q379 52 355 31T297 -1T215 -13Q133 -13 93 30T52 136Q52 205 100 243T225 281H360V341Q360
391 332 424T244 457Q195 457 165 447T105 423L86 456Q105 469 133 478T191 492T241 498Q302 498 341 475T396 410Q422 451 464 474T567 498Q623 498 665 465T731 376T755 248V242ZM408 279H703Q699 327 684 367T638 432T560 457Q512 457 480 433T431 368T408 279ZM360
244H229Q185 247 157 233T116 192T103 136Q103 106 117 82T157 43T219 28Q260 28 289 40T339 74T376 120Q367 147 364 178T360 244Z" />
<glyph unicode="&#xe7;" horiz-adv-x="449" d="M388 62Q362 49 336 39T259 28Q205 28 168 57T111 137T91 246Q91 303 112 351T172 428T264 457Q310 457 339 446T393 423L413 456Q394 469 367 478T313 492T266 498Q195 498 144 465T67 375T40 245Q40 170 65 112T139
20T259 -13Q280 -13 307 -8T361 6T408 28L388 62ZM210 -77Q242 -77 264 -86T297 -110T309 -138Q309 -157 290 -171T239 -185Q223 -185 206 -180T180 -171L165 -202Q178 -210 201 -215T242 -221Q275 -221 299 -211T337 -181T351 -136Q351 -118 341 -101T311 -70T260
-51L285 13H244L210 -77Z" />
<glyph unicode="&#xe8;" horiz-adv-x="480" d="M440 242V250Q440 321 416 377T349 465T252 498Q181 498 134 465T63 375T40 245Q40 170 64 112T140 20T270 -13Q290 -13 318 -9T376 4T425 25L405 62Q380 49 348 39T262 28Q202 28 165 57T110 135T91 242H440ZM93
279Q98 327 115 367T165 432T245 457Q293 457 323 433T368 368T388 279H93ZM253 589L285 600L229 742H168L253 589Z" />
<glyph unicode="&#xe9;" horiz-adv-x="480" d="M440 242V250Q440 321 416 377T349 465T252 498Q181 498 134 465T63 375T40 245Q40 170 64 112T140 20T270 -13Q290 -13 318 -9T376 4T425 25L405 62Q380 49 348 39T262 28Q202 28 165 57T110 135T91 242H440ZM93
279Q98 327 115 367T165 432T245 457Q293 457 323 433T368 368T388 279H93ZM239 589L324 742H263L207 600L239 589Z" />
<glyph unicode="&#xea;" horiz-adv-x="480" d="M440 242V250Q440 321 416 377T349 465T252 498Q181 498 134 465T63 375T40 245Q40 170 64 112T140 20T270 -13Q290 -13 318 -9T376 4T425 25L405 62Q380 49 348 39T262 28Q202 28 165 57T110 135T91 242H440ZM93
279Q98 327 115 367T165 432T245 457Q293 457 323 433T368 368T388 279H93ZM261 707L344 589L385 603L280 742H240L134 599L175 589L261 707Z" />
<glyph unicode="&#xeb;" horiz-adv-x="480" d="M440 242V250Q440 321 416 377T349 465T252 498Q181 498 134 465T63 375T40 245Q40 170 64 112T140 20T270 -13Q290 -13 318 -9T376 4T425 25L405 62Q380 49 348 39T262 28Q202 28 165 57T110 135T91 242H440ZM93
279Q98 327 115 367T165 432T245 457Q293 457 323 433T368 368T388 279H93ZM174 618Q189 618 200 628T211 655Q211 671 200 681T174 691Q157 691 147 681T137 655Q137 639 147 629T174 618ZM333 618Q348 618 359 628T370 655Q370 671 359 681T333 691Q316 691 306
681T296 655Q296 639 306 629T333 618Z" />
<glyph unicode="&#xec;" horiz-adv-x="189" d="M119 0V485H70V0H119ZM99 589L131 600L75 742H14L99 589Z" />
<glyph unicode="&#xed;" horiz-adv-x="189" d="M119 0V485H70V0H119ZM85 589L170 742H109L53 600L85 589Z" />
<glyph unicode="&#xee;" horiz-adv-x="189" d="M119 0V485H70V0H119ZM363 707L446 589L487 603L382 742H342L236 599L277 589L363 707Z" />
<glyph unicode="&#xef;" horiz-adv-x="189" d="M119 0V485H70V0H119ZM276 618Q291 618 302 628T313 655Q313 671 302 681T276 691Q259 691 249 681T239 655Q239 639 249 629T276 618ZM435 618Q450 618 461 628T472 655Q472 671 461 681T435 691Q418 691 408 681T398
655Q398 639 408 629T435 618Z" />
<glyph unicode="&#xf0;" horiz-adv-x="523" d="M483 240Q483 324 461 400T394 541T280 659T114 750L101 718Q196 676 260 622T361 506T415 376T432 239Q432 183 411 135T352 57T259 28Q205 28 168 57T111 137T91 246Q91 303 112 351T172 428T264 457Q294 457 322
448T375 421T422 381L444 402Q420 432 395 453T338 486T265 498Q194 498 144 465T67 374T40 245Q40 170 65 112T138 21T259 -13Q330 -12 380 21T456 111T483 240ZM109 572L376 707L358 742L90 610L109 572Z" />
<glyph unicode="&#xf1;" horiz-adv-x="500" d="M119 0V359Q147 388 176 410T235 444T294 457Q349 457 367 422T385 337V0H434V337Q434 384 420 420T374 477T290 498Q260 498 228 486T168 453T118 409L108 485H70V0H119ZM362 699Q360 676 349 661T317 646Q304 646
292 653T269 675Q258 689 242 696T204 703Q182 703 163 694T133 664T121 612H160Q162 635 172 650T205 665Q218 665 231 658T257 637Q270 623 285 616T317 608Q340 608 358 617T388 647T400 699H362Z" />
<glyph unicode="&#xf2;" horiz-adv-x="523" d="M259 -13Q187 -12 139 21T65 112T40 245Q40 317 66 374T143 464T265 498Q337 498 385 465T458 373T483 240Q483 168 457 111T380 21T259 -13ZM259 28Q313 28 351 57T411 134T432 239Q432 299 413 348T356 427T264
457Q211 457 172 428T112 351T91 246Q91 187 110 137T167 58T259 28ZM268 589L300 600L244 742H183L268 589Z" />
<glyph unicode="&#xf3;" horiz-adv-x="523" d="M259 -13Q187 -12 139 21T65 112T40 245Q40 317 66 374T143 464T265 498Q337 498 385 465T458 373T483 240Q483 168 457 111T380 21T259 -13ZM259 28Q313 28 351 57T411 134T432 239Q432 299 413 348T356 427T264
457Q211 457 172 428T112 351T91 246Q91 187 110 137T167 58T259 28ZM254 589L339 742H278L222 600L254 589Z" />
<glyph unicode="&#xf4;" horiz-adv-x="523" d="M259 -13Q187 -12 139 21T65 112T40 245Q40 317 66 374T143 464T265 498Q337 498 385 465T458 373T483 240Q483 168 457 111T380 21T259 -13ZM259 28Q313 28 351 57T411 134T432 239Q432 299 413 348T356 427T264
457Q211 457 172 428T112 351T91 246Q91 187 110 137T167 58T259 28ZM276 707L359 589L400 603L295 742H255L149 599L190 589L276 707Z" />
<glyph unicode="&#xf5;" horiz-adv-x="523" d="M259 -13Q187 -12 139 21T65 112T40 245Q40 317 66 374T143 464T265 498Q337 498 385 465T458 373T483 240Q483 168 457 111T380 21T259 -13ZM259 28Q313 28 351 57T411 134T432 239Q432 299 413 348T356 427T264
457Q211 457 172 428T112 351T91 246Q91 187 110 137T167 58T259 28ZM367 699Q365 676 354 661T322 646Q309 646 297 653T274 675Q263 689 247 696T209 703Q187 703 168 694T138 664T126 612H165Q167 635 177 650T210 665Q223 665 236 658T262 637Q275 623 290
616T322 608Q345 608 363 617T393 647T405 699H367Z" />
<glyph unicode="&#xf6;" horiz-adv-x="523" d="M259 -13Q187 -12 139 21T65 112T40 245Q40 317 66 374T143 464T265 498Q337 498 385 465T458 373T483 240Q483 168 457 111T380 21T259 -13ZM259 28Q313 28 351 57T411 134T432 239Q432 299 413 348T356 427T264
457Q211 457 172 428T112 351T91 246Q91 187 110 137T167 58T259 28ZM189 618Q204 618 215 628T226 655Q226 671 215 681T189 691Q172 691 162 681T152 655Q152 639 162 629T189 618ZM348 618Q363 618 374 628T385 655Q385 671 374 681T348 691Q331 691 321 681T311
655Q311 639 321 629T348 618Z" />
<glyph unicode="&#xf7;" horiz-adv-x="497" d="M248 377Q264 377 275 388T287 415Q287 431 276 442T248 453Q231 453 221 442T210 415Q210 399 220 388T248 377ZM457 292H30L38 255H467L457 292ZM251 74Q267 74 278 85T290 112Q290 128 279 139T251 150Q234 150
224 139T213 112Q213 96 223 85T251 74Z" />
<glyph unicode="&#xf8;" horiz-adv-x="523" d="M259 -13Q187 -12 139 21T65 112T40 245Q40 317 66 374T143 464T265 498Q337 498 385 465T458 373T483 240Q483 168 457 111T380 21T259 -13ZM259 28Q313 28 351 57T411 134T432 239Q432 299 413 348T356 427T264
457Q211 457 172 428T112 351T91 246Q91 187 110 137T167 58T259 28ZM182 28L142 49L347 444L384 417L182 28Z" />
<glyph unicode="&#xf9;" horiz-adv-x="500" d="M381 485V126Q353 98 324 76T265 41T206 28Q151 28 133 63T115 148V485H66V148Q66 102 80 66T126 8T210 -13Q240 -13 272 -1T333 31T382 76L392 0H430V485H381ZM250 589L282 600L226 742H165L250 589Z" />
<glyph unicode="&#xfa;" horiz-adv-x="500" d="M381 485V126Q353 98 324 76T265 41T206 28Q151 28 133 63T115 148V485H66V148Q66 102 80 66T126 8T210 -13Q240 -13 272 -1T333 31T382 76L392 0H430V485H381ZM236 589L321 742H260L204 600L236 589Z" />
<glyph unicode="&#xfb;" horiz-adv-x="500" d="M381 485V126Q353 98 324 76T265 41T206 28Q151 28 133 63T115 148V485H66V148Q66 102 80 66T126 8T210 -13Q240 -13 272 -1T333 31T382 76L392 0H430V485H381ZM258 707L341 589L382 603L277 742H237L131 599L172
589L258 707Z" />
<glyph unicode="&#xfc;" horiz-adv-x="500" d="M381 485V126Q353 98 324 76T265 41T206 28Q151 28 133 63T115 148V485H66V148Q66 102 80 66T126 8T210 -13Q240 -13 272 -1T333 31T382 76L392 0H430V485H381ZM171 618Q186 618 197 628T208 655Q208 671 197 681T171
691Q154 691 144 681T134 655Q134 639 144 629T171 618ZM330 618Q345 618 356 628T367 655Q367 671 356 681T330 691Q313 691 303 681T293 655Q293 639 303 629T330 618Z" />
<glyph unicode="&#xfd;" horiz-adv-x="430" d="M162 -98Q154 -120 141 -135T108 -161T63 -181L68 -219Q100 -212 126 -198T172 -161T201 -112L420 485H370L216 56L56 491L10 473L193 0L162 -98ZM200 589L285 742H224L168 600L200 589Z" />
<glyph unicode="&#xfe;" horiz-adv-x="508" d="M259 498Q331 498 377 465T445 374T468 240Q468 168 444 111T372 20T252 -13Q218 -13 184 1T125 33V-208L76 -219V696L125 706V446Q152 470 185 484T259 498ZM254 28Q308 28 344 57T398 134T417 239Q417 299 400
348T349 427T259 457Q211 457 181 438T125 392V83Q149 61 181 45T254 28Z" />
<glyph unicode="&#xff;" horiz-adv-x="430" d="M162 -98Q154 -120 141 -135T108 -161T63 -181L68 -219Q100 -212 126 -198T172 -161T201 -112L420 485H370L216 56L56 491L10 473L193 0L162 -98ZM135 618Q150 618 161 628T172 655Q172 671 161 681T135 691Q118
691 108 681T98 655Q98 639 108 629T135 618ZM294 618Q309 618 320 628T331 655Q331 671 320 681T294 691Q277 691 267 681T257 655Q257 639 267 629T294 618Z" />
<glyph unicode="&#x2013;" horiz-adv-x="432" d="M394 293H30L38 254H402L394 293Z" />
<glyph unicode="&#x2014;" horiz-adv-x="524" d="M486 293H30L38 254H494L486 293Z" />
<glyph unicode="&#x2018;" horiz-adv-x="152" d="M69 518Q82 518 90 523T102 538T107 557Q107 567 98 581T71 595Q72 622 89 642T132 677L116 702Q88 689 69 668T40 619T30 561Q30 546 40 532T69 518Z" />
<glyph unicode="&#x2019;" horiz-adv-x="152" d="M83 702Q71 702 63 697T50 682T45 663Q45 657 49 648T61 632T81 625Q80 598 63 578T20 543L36 518Q64 532 83 553T112 601T122 659Q122 674 112 688T83 702Z" />
<glyph unicode="&#x201a;" horiz-adv-x="152" d="M83 76Q71 76 63 71T50 56T45 37Q45 30 49 22T61 6T81 -1Q80 -28 63 -48T20 -83L36 -108Q64 -94 83 -73T112 -25T122 33Q122 48 112 62T83 76Z" />
<glyph unicode="&#x201c;" horiz-adv-x="275" d="M69 518Q82 518 90 523T102 538T107 557Q107 567 98 581T71 595Q72 622 89 642T132 677L116 702Q88 689 69 668T40 619T30 561Q30 546 40 532T69 518ZM192 518Q205 518 213 523T225 538T230 557Q230 564 226 572T214
588T194 595Q195 622 212 642T255 677L239 702Q211 689 192 668T163 619T153 561Q153 546 163 532T192 518Z" />
<glyph unicode="&#x201d;" horiz-adv-x="275" d="M206 702Q194 702 186 697T173 682T168 663Q168 653 177 639T204 625Q203 598 186 578T143 543L159 518Q187 532 206 553T235 601T245 659Q245 674 235 688T206 702ZM83 702Q71 702 63 697T50 682T45 663Q45 657
49 648T61 632T81 625Q80 598 63 578T20 543L36 518Q64 532 83 553T112 601T122 659Q122 674 112 688T83 702Z" />
<glyph unicode="&#x201e;" horiz-adv-x="275" d="M83 76Q71 76 63 71T50 56T45 37Q45 30 49 22T61 6T81 -1Q80 -28 63 -48T20 -83L36 -108Q64 -94 83 -73T112 -25T122 33Q122 48 112 62T83 76ZM206 76Q194 76 186 71T173 56T168 37Q168 27 177 13T204 -1Q203 -28
186 -48T143 -83L159 -108Q187 -94 206 -73T235 -25T245 33Q245 48 235 62T206 76Z" />
<glyph unicode="&#x2022;" horiz-adv-x="183" d="M92 265Q109 265 122 273T144 296T153 326Q153 344 145 358T123 380T92 388Q75 388 61 380T38 358T30 326Q30 310 38 296T60 274T92 265Z" />
<glyph unicode="&#x2039;" horiz-adv-x="211" d="M30 231L170 83L191 117L72 245L191 373L170 408L30 259V231Z" />
<glyph unicode="&#x203a;" horiz-adv-x="211" d="M181 260L41 408L20 374L139 246L20 118L41 83L181 232V260Z" />
</font>
</defs>
</svg>
