<?xml version="1.0" standalone="no"?>
<!DOCTYPE svg PUBLIC "-//W3C//DTD SVG 1.1//EN" "http://www.w3.org/Graphics/SVG/1.1/DTD/svg11.dtd">
<svg xmlns="http://www.w3.org/2000/svg">
<defs >
<font id="Catamaran" horiz-adv-x="583" ><font-face
    font-family="Catamaran Thin ExtraLight"
    units-per-em="1000"
    panose-1="0 0 0 0 0 0 0 0 0 0"
    ascent="1100"
    descent="-540"
    alphabetic="0" />
<glyph unicode=" " horiz-adv-x="238" />
<glyph unicode="!" horiz-adv-x="146" d="M56 200L99 179L112 702H48L56 200ZM73 84Q55 84 43 72T30 43Q30 25 42 13T73 0Q91 0 103 12T116 43Q116 60 104 72T73 84Z" />
<glyph unicode="&quot;" horiz-adv-x="289" d="M217 702Q204 702 195 696T180 680T174 659Q174 645 184 631T213 616Q212 590 196 571T154 536L171 509Q198 522 217 544T248 595T259 653Q259 673 247 687T217 702ZM83 702Q70 702 61 696T46 680T40 659Q40 650
44 641T58 624T79 616Q77 590 61 571T20 536L37 509Q64 522 83 544T114 595T126 653Q126 673 114 687T83 702Z" />
<glyph unicode="#" horiz-adv-x="497" d="M378 502L346 371H212L244 502H196L163 371H30L38 327H152L117 184H30L38 140H106L73 5L121 0L155 140H289L256 5L303 0L337 140H467L460 184H348L383 327H467L460 371H394L427 502H378ZM335 327L299 184H166L201 327H335Z" />
<glyph unicode="$" horiz-adv-x="522" d="M187 -111V-9Q162 -5 136 0T89 14T55 29L70 72Q88 64 114 55T171 39T236 33Q294 33 333 50T392 97T413 160Q413 198 393 226T332 279T231 329Q186 347 152 368T95 415T60 469T48 533Q48 589 85 631T187 688V787L230 797V694Q236
695 243 695T256 696Q267 696 277 696T297 693V790L341 800V686Q365 681 386 673T424 657L402 616Q385 624 365 632T319 645T258 650Q186 650 144 616T102 530Q102 492 123 463T185 409T286 357Q331 337 365 317T422 273T456 222T468 158Q468 103 436 62T341 1V-111H297V-8Q283
-10 268 -11T237 -13H230V-111H187Z" />
<glyph unicode="%" horiz-adv-x="823" d="M534 710L226 0L278 -4L587 706L534 710ZM192 702Q149 702 114 681T59 622T38 532Q38 478 57 441T112 383T193 363Q235 363 269 383T324 442T345 532Q345 586 326 624T273 682T192 702ZM192 659Q233 659 262 627T291 532Q291
489 277 461T240 420T193 406Q153 406 123 438T92 532Q92 576 107 604T144 645T192 659ZM632 338Q589 338 554 317T499 258T478 168Q478 114 497 76T552 19T632 -1Q675 -1 709 19T764 78T785 168Q785 222 766 260T713 318T632 338ZM632 294Q673 294 702 263T731
168Q731 125 717 98T680 57T632 43Q593 43 563 74T532 168Q532 212 547 240T585 281T632 294Z" />
<glyph unicode="&amp;" horiz-adv-x="654" d="M463 116Q433 78 390 56T294 33Q246 33 202 52T130 111T102 205Q102 259 123 302T186 373Q196 361 208 349T233 326L463 116ZM590 0L617 33L525 119Q550 163 563 215T578 325L537 339Q535 290 523 242T487 153L284
344Q250 377 226 404T189 461T176 526Q176 558 192 586T237 632T303 650Q351 650 377 639T428 616L449 657Q423 671 386 683T298 696Q245 696 206 673T145 609T123 521Q123 488 132 461T158 409Q109 378 79 324T48 203Q48 134 80 86T168 13T292 -13Q361 -13 413
12T499 82L590 0Z" />
<glyph unicode="&apos;" horiz-adv-x="156" d="M83 702Q70 702 61 696T46 680T40 659Q40 650 44 641T58 624T79 616Q77 590 61 571T20 536L37 509Q64 522 83 544T114 595T126 653Q126 673 114 687T83 702Z" />
<glyph unicode="(" horiz-adv-x="245" d="M215 -19Q193 4 174 45T139 137T116 236T107 321Q107 357 115 404T139 501T173 591T215 657L169 675Q127 622 101 560T63 435T50 320Q50 267 62 205T101 80T169 -37L215 -19Z" />
<glyph unicode=")" horiz-adv-x="245" d="M30 657Q51 633 70 592T105 501T129 403T138 319Q138 283 130 235T106 137T71 46T30 -19L76 -37Q117 17 143 79T182 204T195 320Q195 373 182 435T143 559T76 675L30 657Z" />
<glyph unicode="*" horiz-adv-x="325" d="M182 774H141L140 656L22 685L10 650L129 623L46 502L82 481L162 596L245 481L278 502L196 623L315 650L302 685L182 656V774Z" />
<glyph unicode="+" horiz-adv-x="531" d="M491 295H291V531L238 534V295H30L38 252H238V8L291 4V252H501L491 295Z" />
<glyph unicode="," horiz-adv-x="156" d="M83 84Q71 84 61 78T46 63T40 42Q40 33 44 24T58 7T79 0Q78 -27 62 -46T20 -81L37 -108Q64 -94 83 -72T114 -22T126 37Q126 56 114 70T83 84Z" />
<glyph unicode="-" horiz-adv-x="313" d="M275 295H30L38 251H283L275 295Z" />
<glyph unicode="." horiz-adv-x="145" d="M73 0Q90 0 102 12T115 43Q115 60 103 72T73 84Q54 84 42 72T30 42Q30 25 42 13T73 0Z" />
<glyph unicode="/" horiz-adv-x="380" d="M318 710L10 0L61 -4L370 706L318 710Z" />
<glyph unicode="0" horiz-adv-x="578" d="M38 288Q38 201 70 133T159 26T290 -13Q363 -13 419 26T508 133T541 289Q541 373 509 438T420 541T290 579Q217 579 160 542T70 439T38 288ZM95 291Q95 361 120 415T189 501T290 532Q346 532 389 501T458 414T483 286Q483
213 458 156T390 67T290 34Q234 34 190 67T120 158T95 291Z" />
<glyph unicode="1" horiz-adv-x="300" d="M222 0V566H184L10 485L32 442L166 499V0H222Z" />
<glyph unicode="2" horiz-adv-x="473" d="M219 579Q155 579 111 562T38 527L60 485Q78 495 100 506T152 525T217 533Q282 533 323 501T364 416Q364 384 353 358T315 303T244 236L25 50V0H453L445 44H89L273 195Q322 236 355 272T405 345T422 418Q422 465 397 501T326
558T219 579Z" />
<glyph unicode="3" horiz-adv-x="451" d="M205 579Q145 579 98 562T11 520L42 484Q66 500 107 516T202 533Q244 533 275 517T322 473T339 416Q339 359 292 323T160 287H126L136 246H154Q258 246 304 207T351 104Q351 64 328 34T269 -13T193 -30Q138 -30 103 -18T33
15L0 -24Q34 -43 84 -59T190 -76Q257 -76 306 -52T381 13T408 106Q408 147 392 180T348 237T282 268Q314 278 339 299T380 351T396 417Q396 459 375 496T312 556T205 579Z" />
<glyph unicode="4" horiz-adv-x="512" d="M492 119H381V571H347L10 125L19 74H326V-69H381V74H484L492 119ZM326 464V119H68L326 464Z" />
<glyph unicode="5" horiz-adv-x="491" d="M123 230Q141 248 175 266T249 284Q314 284 354 243T394 130Q394 58 350 14T226 -30Q176 -30 139 -18T66 15L38 -25Q62 -37 90 -49T152 -68T222 -76Q298 -76 349 -48T426 28T453 130Q453 184 432 229T365 302T245 330Q218
330 188 320T131 291L141 521H409L414 566H89L74 230H123Z" />
<glyph unicode="6" horiz-adv-x="497" d="M67 285L84 244Q99 268 125 290T185 327T255 342Q302 342 335 322T385 266T403 185Q403 147 386 113T335 56T254 34Q201 34 165 61T110 140T92 270Q92 328 110 376T161 464T232 530T314 573T395 590L377 634Q329 628 281
609T189 559T111 483T58 384T38 260Q38 172 66 111T143 19T256 -13Q315 -13 361 15T433 89T459 190Q459 241 436 286T367 359T255 387Q206 387 169 369T107 328T67 285Z" />
<glyph unicode="7" horiz-adv-x="429" d="M174 -69L409 537L387 566H10L18 521H351L121 -49L174 -69Z" />
<glyph unicode="8" horiz-adv-x="508" d="M255 643Q191 643 149 620T87 560T66 481Q66 431 97 394T175 339Q137 331 106 304T57 241T38 169Q38 119 62 78T134 12T255 -13Q327 -13 374 12T446 79T471 169Q471 211 452 246T402 306T335 339Q362 351 386 371T427
419T443 481Q443 522 423 559T361 619T255 643ZM252 598Q322 598 355 563T388 482Q388 456 372 430T327 385T255 360Q191 369 157 404T122 482Q122 512 136 538T179 581T252 598ZM255 316Q334 306 374 264T414 164Q414 126 393 96T335 50T255 33Q210 33 174 50T116
96T95 164Q95 221 135 263T255 316Z" />
<glyph unicode="9" horiz-adv-x="497" d="M429 280L412 322Q398 299 372 276T312 239T241 224Q195 224 162 244T111 300T93 380Q93 418 110 453T161 510T242 532Q296 532 332 505T386 425T405 295Q405 237 386 189T336 101T265 35T183 -7T101 -25L119 -69Q167
-63 215 -44T308 6T386 82T439 182T459 305Q459 394 431 454T354 546T240 578Q182 578 136 550T64 476T38 375Q38 325 61 280T129 206T241 178Q291 178 327 196T389 238T429 280Z" />
<glyph unicode=":" horiz-adv-x="145" d="M72 360Q90 360 102 372T115 403Q115 420 103 433T72 446Q54 446 42 433T30 403Q30 385 42 373T72 360ZM72 41Q90 41 102 53T115 84Q115 102 103 114T72 127Q54 127 42 115T30 84Q30 66 42 54T72 41Z" />
<glyph unicode=";" horiz-adv-x="156" d="M83 360Q101 360 113 372T126 403Q126 420 114 433T83 446Q65 446 53 433T40 403Q40 385 52 373T83 360ZM83 127Q71 127 61 121T46 105T40 83Q40 75 44 65T58 49T79 41Q78 15 62 -5T20 -40L37 -67Q64 -54 83 -32T114 19T126
78Q126 98 114 112T83 127Z" />
<glyph unicode="&lt;" horiz-adv-x="322" d="M302 59L81 245L302 431L279 470L30 264V226L279 19L302 59Z" />
<glyph unicode="=" horiz-adv-x="497" d="M460 371H30L38 327H467L460 371ZM460 184H30L38 140H467L460 184Z" />
<glyph unicode="&gt;" horiz-adv-x="322" d="M292 263L43 470L20 431L241 244L20 58L43 19L292 226V263Z" />
<glyph unicode="?" horiz-adv-x="398" d="M186 702Q127 702 85 684T10 641L18 594Q57 622 93 638T184 655Q244 655 276 626T309 537Q309 480 261 434T135 363L143 158L182 138L191 332Q247 357 286 390T347 462T368 538Q368 586 349 623T289 681T186 702ZM157
84Q139 84 127 72T115 43Q115 25 127 13T157 0Q175 0 187 12T200 43Q200 60 188 72T157 84Z" />
<glyph unicode="@" horiz-adv-x="762" d="M532 384L514 406H443Q400 406 361 392T291 352T244 290T226 211Q226 147 267 107T385 66Q410 66 436 76T480 99Q494 82 514 73T561 63Q599 63 628 78T680 123T713 199T724 304Q724 367 702 419T640 511T544 572T420 594Q329
594 258 564T138 481T64 360T38 213Q38 141 63 83T133 -16T233 -79T351 -101Q400 -101 448 -93T539 -62L525 -20Q505 -31 478 -39T421 -51T362 -55Q288 -55 227 -23T130 70T94 214Q94 291 119 352T188 458T291 526T417 550Q496 550 553 518T642 429T673 297Q673
235 659 193T621 129T566 107Q539 107 522 123T508 183L532 384ZM384 107Q351 107 328 121T293 158T281 211Q281 259 303 294T360 348T438 367H483L460 190Q458 176 458 161T463 132Q450 121 429 114T384 107Z" />
<glyph unicode="A" horiz-adv-x="581" d="M420 253H155L285 608L420 253ZM257 680L10 0H64L140 209H436L516 -6L571 5L312 680H257Z" />
<glyph unicode="B" horiz-adv-x="571" d="M277 0Q330 0 376 9T457 40T513 98T533 188Q533 259 495 301T394 362Q435 382 465 417T495 503Q495 571 464 609T377 664T250 680H98V0H277ZM257 635Q312 635 352 624T415 583T438 502Q438 454 411 426T340 387T244 375H153V635H257ZM295
330Q377 330 426 296T476 186Q476 134 451 103T382 59T284 45H153V330H295Z" />
<glyph unicode="C" horiz-adv-x="553" d="M526 657Q507 670 476 678T414 690T361 694Q288 694 230 667T131 590T70 476T48 336Q48 267 67 204T123 92T219 15T355 -14Q384 -14 416 -9T478 4T526 23L502 65Q475 53 441 44T352 35Q294 35 249 59T172 125T125 221T108
337Q108 429 141 498T232 607T361 646Q397 646 421 642T466 632T506 616L526 657Z" />
<glyph unicode="D" horiz-adv-x="663" d="M320 0Q420 0 485 46T582 171T615 344Q615 437 586 513T494 634T325 680H98V0H320ZM331 635Q409 635 459 596T535 490T560 343Q560 256 530 189T447 83T321 45H153V635H331Z" />
<glyph unicode="E" horiz-adv-x="499" d="M479 0L473 44H153V328H398L393 369H153V638H456L451 680H98V0H479Z" />
<glyph unicode="F" horiz-adv-x="467" d="M382 365H153V638H447L440 680H98V0H153V324H388L382 365Z" />
<glyph unicode="G" horiz-adv-x="620" d="M353 300H506V58Q481 49 451 42T384 35Q305 35 243 72T144 178T108 336Q108 407 130 464T192 562T283 625T393 647Q429 647 453 644T498 634T538 618L557 657Q539 670 508 678T444 690T391 694Q318 694 255 668T146 594T74
481T48 336Q48 237 89 158T206 32T385 -14Q415 -14 448 -8T511 8T561 31V342H359L353 300Z" />
<glyph unicode="H" horiz-adv-x="653" d="M555 0V680H500V366H153V685L98 680V0H153V322H500V0H555Z" />
<glyph unicode="I" horiz-adv-x="250" d="M153 0V680H98V0H153Z" />
<glyph unicode="J" horiz-adv-x="239" d="M97 54Q97 14 90 -7T63 -40T10 -65L34 -102Q82 -87 107 -69T142 -25T152 42V680H97V54Z" />
<glyph unicode="K" horiz-adv-x="586" d="M508 0L237 352L153 263V0H98V680H153V330L493 695L530 660L274 391L576 0H508Z" />
<glyph unicode="L" horiz-adv-x="494" d="M479 44H153V680H98V0H484L479 44Z" />
<glyph unicode="M" horiz-adv-x="740" d="M381 242L587 560V0H642V680H609L369 320L126 680H98V0H153V555L361 238L381 242Z" />
<glyph unicode="N" horiz-adv-x="670" d="M153 0V568L167 539L539 0H573V680H517V119L483 178L132 680H98V0H153Z" />
<glyph unicode="O" horiz-adv-x="713" d="M354 -14Q265 -14 196 31T88 155T48 337Q48 440 88 521T198 648T360 696Q448 696 517 651T626 527T666 345Q666 242 626 161T515 34T354 -14ZM352 33Q426 33 483 73T572 184T605 344Q605 432 574 500T487 608T361 648Q288
648 231 608T141 498T108 338Q108 250 139 181T226 73T352 33Z" />
<glyph unicode="P" horiz-adv-x="549" d="M153 0V264H256Q309 264 355 276T436 314T492 380T512 475Q512 549 480 594T393 659T267 680H98V0H153ZM274 634Q329 634 369 619T433 568T456 474Q456 418 430 381T361 327T263 309H153V634H274Z" />
<glyph unicode="Q" horiz-adv-x="713" d="M427 214L388 181L601 -19L635 9L427 214ZM360 696Q269 695 199 649T88 521T48 337Q48 235 87 156T196 31T354 -14Q445 -13 515 33T625 161T666 345Q666 447 627 526T518 651T360 696ZM108 338Q108 428 140 497T230 607T361
648Q432 648 487 609T573 501T605 344Q605 254 573 184T483 74T352 33Q281 33 226 72T140 181T108 338Z" />
<glyph unicode="R" horiz-adv-x="576" d="M269 634Q321 634 363 621T430 575T456 484Q456 428 427 394T354 346T258 331H153V634H269ZM98 680V0H153V286H256Q277 286 299 288T341 294L504 0H566L389 309Q443 330 477 373T512 486Q512 558 480 600T393 661T267 680H98Z" />
<glyph unicode="S" horiz-adv-x="506" d="M55 29Q68 21 89 14T137 0T190 -9T237 -13Q311 -13 362 9T441 69T468 158Q468 194 457 222T423 273T366 316T286 357Q227 384 186 409T123 463T102 530Q102 582 144 616T258 650Q293 650 318 645T364 632T402 616L424
657Q394 672 350 684T256 696Q192 696 146 675T74 616T48 533Q48 499 60 470T95 415T152 369T231 329Q291 304 332 280T393 227T413 160Q413 126 393 97T333 51T236 33Q203 33 172 39T114 54T70 72L55 29Z" />
<glyph unicode="T" horiz-adv-x="543" d="M528 680H10V636H243V0H299V636H533L528 680Z" />
<glyph unicode="U" horiz-adv-x="665" d="M143 680H88V239Q88 167 117 110T201 21T332 -12Q410 -12 464 20T548 110T577 239V680H522V242Q522 184 500 137T435 63T332 35Q275 35 233 62T167 137T143 242V680Z" />
<glyph unicode="V" horiz-adv-x="581" d="M65 685L10 674L269 -1H324L571 679H518L296 72L65 685Z" />
<glyph unicode="W" horiz-adv-x="816" d="M806 679L629 -1H574L409 587L260 -1H205L10 674L65 685L231 82L383 679H437L601 82L753 679H806Z" />
<glyph unicode="X" horiz-adv-x="546" d="M73 0L274 305L466 0H530L315 334L536 680H476L285 378L86 692L36 668L245 347L10 0H73Z" />
<glyph unicode="Y" horiz-adv-x="537" d="M290 0V278L527 680H466L262 328L62 692L10 666L235 272V0H290Z" />
<glyph unicode="Z" horiz-adv-x="548" d="M506 44H86L521 631L516 680H49L59 636H465L28 50L34 0H511L506 44Z" />
<glyph unicode="[" horiz-adv-x="269" d="M100 -88H259L251 -47H153V654H251L259 696H100V-88Z" />
<glyph unicode="\" horiz-adv-x="380" d="M370 0L62 710L10 706L318 -4L370 0Z" />
<glyph unicode="]" horiz-adv-x="268" d="M168 696H10L18 654H116V-47H18L10 -88H168V696Z" />
<glyph unicode="^" horiz-adv-x="414" d="M205 346L345 143H399L230 390H179L10 143H64L205 346Z" />
<glyph unicode="_" horiz-adv-x="434" d="M396 44H30L38 0H404L396 44Z" />
<glyph unicode="`" horiz-adv-x="141" d="M95 589L131 601L76 742H10L95 589Z" />
<glyph unicode="a" horiz-adv-x="479" d="M108 136Q108 180 137 211T226 242H360V113Q336 80 300 57T216 33Q180 33 156 47T120 86T108 136ZM105 418Q133 431 163 441T244 452Q303 452 331 419T360 336V281H225Q149 281 101 243T52 136Q52 73 92 30T215 -13Q260
-13 299 6T363 52L371 0H415V340Q415 388 395 423T336 478T241 498Q221 498 192 493T134 478T86 456L105 418Z" />
<glyph unicode="b" horiz-adv-x="516" d="M112 0L133 63V706L78 696V0H112ZM124 381Q150 411 182 431T264 452Q319 452 353 424T404 348T421 240Q421 184 403 137T350 61T260 33Q212 33 179 53T121 97L101 61Q118 45 142 28T196 -1T258 -13Q330 -13 379 20T453
111T478 241Q478 317 454 374T383 465T263 498Q231 498 203 489T149 462T104 420L124 381Z" />
<glyph unicode="c" horiz-adv-x="450" d="M391 67Q365 54 338 44T260 33Q206 33 169 61T113 138T94 246Q95 303 115 349T173 424T265 452Q314 452 342 441T396 418L416 456Q397 469 370 478T315 492T267 498Q196 498 145 465T66 375T38 245Q38 170 64 112T139
20T260 -13Q281 -13 308 -8T363 6T411 28L391 67Z" />
<glyph unicode="d" horiz-adv-x="514" d="M381 62L403 0H436V705L381 696V62ZM391 104Q365 74 333 54T252 33Q198 33 163 61T111 137T94 245Q95 302 112 349T166 424T255 452Q304 452 336 432T394 388L414 424Q399 441 375 457T320 486T258 498Q187 498 138 465T63
375T38 244Q38 169 61 111T133 20T252 -13Q284 -13 313 -4T366 24T411 65L391 104Z" />
<glyph unicode="e" horiz-adv-x="486" d="M448 241V247Q448 319 425 376T359 465T253 498Q182 498 134 465T62 375T38 245Q38 170 63 112T141 20T275 -13Q303 -13 332 -8T388 7T437 29L417 70Q386 54 352 43T269 32Q207 32 169 60T113 135T94 241H448ZM96 280Q101
328 118 367T168 429T248 452Q296 452 326 429T371 367T391 280H96Z" />
<glyph unicode="f" horiz-adv-x="269" d="M19 431H92V0H147V431H256L235 472H147V572Q147 608 162 631T216 654Q226 654 238 651T257 645L269 689Q263 692 253 695T230 700T203 702Q167 702 142 685T105 637T92 563V472H19V431Z" />
<glyph unicode="g" horiz-adv-x="510" d="M436 485H403L381 420V-67Q381 -127 339 -155T236 -184Q187 -183 155 -173T92 -149L73 -189Q87 -198 109 -205T155 -218T201 -227T238 -230Q302 -230 346 -208T413 -148T436 -62V485ZM391 104Q365 74 333 54T252 33Q198
33 163 61T111 137T94 245Q95 302 112 349T166 424T255 452Q304 452 336 432T394 388L414 424Q399 441 375 457T320 486T258 498Q187 498 138 465T63 375T38 244Q38 169 61 111T133 20T252 -13Q284 -13 313 -4T366 24T411 65L391 104Z" />
<glyph unicode="h" horiz-adv-x="517" d="M133 353Q158 382 188 404T248 438T306 451Q360 451 379 416T399 331V0H454V337Q454 384 439 420T392 477T307 498Q277 498 245 486T183 454T132 410L133 353ZM133 0V706L78 696V0H133Z" />
<glyph unicode="i" horiz-adv-x="191" d="M123 0V485H68V0H123ZM95 596Q113 596 125 608T138 638Q138 656 125 668T95 680Q76 680 65 668T53 638Q53 620 64 608T95 596Z" />
<glyph unicode="j" horiz-adv-x="210" d="M103 596Q91 596 82 601T67 617T61 638Q61 656 72 668T103 680Q121 680 133 668T146 638Q146 620 134 608T103 596ZM132 485V-62Q132 -104 124 -133T93 -183T21 -219L0 -180Q34 -167 50 -152T71 -114T76 -51V485H132Z" />
<glyph unicode="k" horiz-adv-x="453" d="M133 0V199L206 273L386 0H453L242 309L396 464L358 498L133 265V706L78 696V0H133Z" />
<glyph unicode="l" horiz-adv-x="210" d="M133 0V706L78 696V0H133Z" />
<glyph unicode="m" horiz-adv-x="784" d="M123 0V353Q148 382 177 404T235 438T289 451Q323 451 340 435T364 392T371 331V0H426V337Q426 384 413 420T370 477T290 498Q264 498 233 486T172 454T122 410L112 485H68V0H123ZM417 353Q443 382 472 404T530 438T583
451Q617 451 635 435T659 392T666 331V0H721V337Q721 384 708 420T664 477T584 498Q558 498 527 486T466 454T416 410L417 353Z" />
<glyph unicode="n" horiz-adv-x="507" d="M123 0V353Q148 382 178 404T238 438T296 451Q350 451 369 416T389 331V0H444V337Q444 384 429 420T382 477T297 498Q267 498 235 486T173 454T122 410L112 485H68V0H123Z" />
<glyph unicode="o" horiz-adv-x="525" d="M259 -13Q187 -13 138 20T64 112T38 245Q38 317 65 374T144 464T266 498Q338 498 387 466T461 376T487 240Q487 168 460 111T381 21T259 -13ZM260 33Q314 33 352 61T410 136T431 239Q431 299 412 347T357 423T265 452Q212
452 174 424T115 350T94 246Q94 187 113 139T169 62T260 33Z" />
<glyph unicode="p" horiz-adv-x="512" d="M129 -208V418L108 485H74V-219L129 -208ZM120 381Q146 411 178 431T260 452Q315 452 349 424T400 348T417 240Q417 184 399 137T346 61T256 33Q208 33 175 53T117 97L97 61Q114 45 138 28T192 -1T254 -13Q326 -13 375
20T449 111T474 241Q474 317 450 374T379 465T259 498Q227 498 199 489T145 462T100 420L120 381Z" />
<glyph unicode="q" horiz-adv-x="510" d="M403 485L381 423V-219L436 -208V485H403ZM391 104Q365 74 333 54T252 33Q198 33 163 61T111 137T94 245Q95 302 112 349T166 424T255 452Q304 452 336 432T394 388L414 424Q399 441 375 457T320 486T258 498Q187 498
138 465T63 375T38 244Q38 169 61 111T133 20T252 -13Q284 -13 313 -4T366 24T411 65L391 104Z" />
<glyph unicode="r" horiz-adv-x="306" d="M123 0V352Q142 373 170 393T232 428T296 442L279 485Q254 485 224 472T166 441T120 408L102 485H68V0H123Z" />
<glyph unicode="s" horiz-adv-x="412" d="M42 25Q61 13 87 5T142 -8T190 -13Q283 -13 328 23T374 123Q374 160 352 187T295 234T220 270Q170 288 134 311T97 368Q97 403 128 428T211 453Q256 453 286 441T337 419L357 458Q341 470 316 479T264 493T216 498Q134
498 89 461T44 364Q44 330 65 304T121 259T192 226Q228 213 257 198T304 163T322 119Q322 92 306 73T261 43T192 32Q167 32 144 37T99 51T60 68L42 25Z" />
<glyph unicode="t" horiz-adv-x="295" d="M234 472H146V623L91 601V472H19V431H91V116Q91 74 104 46T143 2T201 -13Q214 -13 226 -11T249 -6T267 -1L255 43Q250 41 238 38T214 34Q177 34 162 60T146 123V431H255L234 472Z" />
<glyph unicode="u" horiz-adv-x="507" d="M385 485V132Q359 104 329 82T269 47T211 34Q157 34 138 69T119 154V485H64V148Q64 102 78 66T125 8T210 -13Q240 -13 273 -1T336 31T386 76L396 0H440V485H385Z" />
<glyph unicode="v" horiz-adv-x="434" d="M245 0L424 485H369L217 67L59 495L10 473L189 0H245Z" />
<glyph unicode="w" horiz-adv-x="642" d="M492 0L632 485H577L464 73L343 485H293L176 73L59 494L10 472L149 0H205L315 402L435 0H492Z" />
<glyph unicode="x" horiz-adv-x="416" d="M72 0L201 203L332 0H393L243 232L406 485H346L214 273L77 494L28 472L172 244L10 0H72Z" />
<glyph unicode="y" horiz-adv-x="434" d="M161 -98Q153 -120 140 -135T108 -160T64 -180L74 -219Q106 -212 132 -198T178 -161T207 -112L424 485H369L217 68L57 494L10 472L193 -3L161 -98Z" />
<glyph unicode="z" horiz-adv-x="432" d="M403 485H55L71 442H341L26 31L34 0H400L390 42H88L406 453L403 485Z" />
<glyph unicode="{" horiz-adv-x="265" d="M131 309Q160 320 177 347T195 419Q195 432 191 449T176 489Q166 511 162 529T157 560Q157 581 174 599T229 617H248L255 659H229Q166 659 136 631T105 554Q105 538 109 520T123 482Q132 462 136 444T141 410Q141 373
117 350T63 327H30V288H63Q93 288 117 266T141 205Q141 189 137 172T123 134Q114 114 110 96T105 62Q105 14 135 -15T229 -44H255L248 -2H229Q192 -2 175 16T157 56Q157 69 161 86T176 126Q186 148 190 165T195 197Q195 239 177 267T131 309Z" />
<glyph unicode="|" horiz-adv-x="250" d="M98 710V0L153 -4V706L98 710Z" />
<glyph unicode="}" horiz-adv-x="265" d="M135 307Q105 295 88 268T70 197Q70 183 74 166T89 126Q99 104 103 87T108 56Q108 34 91 16T36 -2H17L10 -44H36Q99 -44 129 -15T160 62Q160 78 156 96T142 134Q133 154 129 172T124 205Q124 243 148 266T202 289H235V327H202Q172
327 148 350T124 410Q124 426 128 444T142 482Q151 502 155 520T160 554Q160 602 130 630T36 659H10L17 617H36Q73 617 90 599T108 560Q108 547 104 529T89 489Q79 467 75 450T70 419Q70 376 88 348T135 307Z" />
<glyph unicode="~" horiz-adv-x="378" d="M30 210H72Q73 231 87 241T120 252Q135 252 152 246T188 228Q206 216 223 210T258 204Q284 204 304 213T336 242T348 289H304Q304 269 290 258T257 247Q244 247 229 253T197 271Q180 283 161 289T120 295Q94 295 74 286T42
258T30 210Z" />
<glyph unicode="&#xa0;" horiz-adv-x="238" />
<glyph unicode="&#xa1;" horiz-adv-x="146" d="M74 616Q92 616 104 629T116 659Q116 677 104 689T74 702Q56 702 44 690T31 659Q31 642 43 629T74 616ZM91 502L48 523L36 0H99L91 502Z" />
<glyph unicode="&#xa2;" horiz-adv-x="450" d="M290 473V605L243 595V474L290 473ZM290 4L243 3V-111H290V4ZM391 67Q365 54 338 44T260 33Q206 33 169 61T113 138T94 246Q95 303 115 349T173 424T265 452Q314 452 342 441T396 418L416 456Q397 469 370 478T315
492T267 498Q196 498 145 465T66 375T38 245Q38 170 64 112T139 20T260 -13Q281 -13 308 -8T363 6T411 28L391 67Z" />
<glyph unicode="&#xa3;" horiz-adv-x="428" d="M68 0H418L412 44H152Q171 63 178 88T186 148V332H346L324 373H186V554Q186 590 201 613T255 637Q265 637 277 634T296 627L308 671Q302 674 292 677T269 682T242 684Q206 684 181 667T144 619T131 545V373H58L60
332H131V127Q131 91 116 68T64 44L68 0Z" />
<glyph unicode="&#xa4;" horiz-adv-x="662" d="M61 -56L166 48Q197 19 237 3T325 -13Q375 -13 418 3T493 50L601 -56L632 -20L526 87Q549 118 561 157T575 239Q575 284 563 325T528 398L632 503L601 540L497 436Q466 464 426 481T335 498Q285 498 243 481T168
434L61 540L30 503L136 398Q113 366 101 328T88 246Q88 199 100 158T134 84L30 -20L61 -56ZM518 239Q518 181 493 135T425 61T326 34Q272 34 232 61T168 137T144 246Q145 303 169 349T237 423T336 451Q394 451 434 422T496 345T518 239Z" />
<glyph unicode="&#xa5;" horiz-adv-x="537" d="M58 303L65 259H479L472 303H58ZM58 128L65 84H479L472 128H58ZM290 0V278L527 680H466L262 328L62 692L10 666L235 272V0H290Z" />
<glyph unicode="&#xa6;" horiz-adv-x="250" d="M98 710V410L153 406V706L98 710ZM98 292V0L153 -4V288L98 292Z" />
<glyph unicode="&#xa7;" horiz-adv-x="566" d="M435 99Q466 114 487 135T518 184T529 243Q529 278 518 306T483 357T426 401T347 442Q287 469 246 493T184 547T163 614Q163 666 205 700T319 734Q354 734 379 729T425 716T463 700L485 741Q455 756 411 768T317
780Q253 780 207 759T134 701T108 617Q108 583 120 554T155 499T212 453T291 413Q352 388 392 364T453 311T474 244Q474 215 459 190T416 146L435 99ZM55 -77Q68 -84 89 -91T137 -105T190 -115T237 -119Q311 -119 362 -97T441 -36T468 53Q468 88 457 116T423 167T366
211T286 252Q227 279 186 303T123 357T102 424Q102 456 119 482T166 524L140 565Q110 552 90 531T59 484T48 427Q48 393 60 364T95 309T152 263T231 223Q291 198 332 174T393 121T413 54Q413 20 393 -9T333 -55T236 -72Q203 -72 172 -66T114 -51T70 -33L55 -77Z"
/>
<glyph unicode="&#xa8;" horiz-adv-x="258" d="M50 618Q67 618 78 629T90 658Q90 675 79 686T50 697Q33 697 22 686T10 658Q10 641 21 630T50 618ZM208 618Q225 618 236 629T248 658Q248 675 237 686T208 697Q190 697 179 686T168 658Q168 641 179 630T208 618Z" />
<glyph unicode="&#xa9;" horiz-adv-x="789" d="M751 336Q751 411 726 475T654 587T542 663T394 690Q312 690 247 663T135 588T63 475T38 336Q38 262 62 198T133 86T245 11T394 -16Q476 -16 541 11T654 86T726 198T751 336ZM90 337Q90 425 127 495T232 606T394
647Q488 647 556 606T662 495T700 337Q700 250 662 180T556 68T394 27Q301 27 233 68T127 179T90 337ZM407 114Q427 114 452 119T502 133T543 156L523 192Q501 179 474 169T406 158Q331 158 292 207T253 342Q253 396 271 436T324 500T408 523Q436 523 457 518T494
506T525 489L545 526Q530 539 506 548T456 562T410 568Q347 568 299 540T225 462T198 341Q198 272 224 221T297 142T407 114Z" />
<glyph unicode="&#xaa;" horiz-adv-x="332" d="M87 465Q87 492 109 509T167 526H244V456Q228 434 205 419T153 403Q123 403 105 422T87 465ZM72 636Q90 643 110 650T164 658Q204 658 224 637T244 582V562H158Q107 562 73 537T38 465Q38 422 69 393T153 363Q181
363 206 376T247 408L258 372H294V580Q294 612 279 639T235 684T163 702Q150 702 131 699T92 689T60 673L72 636Z" />
<glyph unicode="&#xab;" horiz-adv-x="363" d="M182 226L322 84L343 120L225 245L343 370L322 406L182 264V226ZM30 226L170 84L191 120L74 245L191 370L170 406L30 264V226Z" />
<glyph unicode="&#xac;" horiz-adv-x="509" d="M471 406H10L18 362H426V117L479 112V356L471 406Z" />
<glyph unicode="&#xad;" horiz-adv-x="120" />
<glyph unicode="&#xae;" horiz-adv-x="710" d="M673 487Q673 575 634 646T523 758T356 800Q259 800 188 759T77 646T38 487Q38 400 77 330T188 218T356 176Q452 176 523 217T633 329T673 487ZM88 488Q88 566 120 627T213 723T356 758Q438 758 497 723T588 627T621
488Q621 412 589 351T497 255T356 218Q274 219 214 254T121 351T88 488ZM331 644Q360 644 382 640T418 620T431 571Q431 541 417 525T378 503T326 497H295V644H331ZM508 304L409 472Q437 484 457 509T478 572Q478 612 461 635T413 669T342 680H250V304H295V462H337Q344
462 351 462T366 463L456 304H508Z" />
<glyph unicode="&#xaf;" horiz-adv-x="261" d="M10 640H251L245 683H10V640Z" />
<glyph unicode="&#xb0;" horiz-adv-x="238" d="M116 702Q87 702 63 688T24 651T10 599Q10 569 24 547T62 511T116 498Q147 498 171 511T209 546T223 599Q223 628 209 651T171 688T116 702ZM118 533Q89 533 71 554T53 600Q53 625 70 645T116 665Q144 665 162 645T181
600Q181 575 164 554T118 533Z" />
<glyph unicode="&#xb1;" horiz-adv-x="492" d="M450 347H269V531L217 534V347H30L38 305H217V113L269 108V305H458L450 347ZM454 42H30L38 0H462L454 42Z" />
<glyph unicode="&#xb2;" horiz-adv-x="347" d="M172 771Q147 771 121 766T71 752T29 733L48 696Q62 704 83 712T127 725T170 731Q204 731 224 718T254 686T263 647Q263 625 247 593T181 515L25 376V336H327L321 374H82L207 483Q262 532 287 570T313 650Q313 678
299 706T253 752T172 771Z" />
<glyph unicode="&#xb3;" horiz-adv-x="354" d="M155 771Q109 771 74 759T9 727L31 693Q50 705 80 718T154 731Q200 731 226 708T252 650Q252 622 239 601T198 568T128 556H96L103 518H123Q201 518 231 491T262 415Q262 385 246 364T204 331T147 320Q104 320 77
328T24 353L0 318Q26 303 63 291T143 278Q196 278 233 296T291 346T311 416Q311 448 300 473T269 515T220 538Q243 546 261 562T291 601T302 651Q302 700 266 735T155 771Z" />
<glyph unicode="&#xb4;" horiz-adv-x="141" d="M46 589L131 742H65L10 601L46 589Z" />
<glyph unicode="&#xb5;" horiz-adv-x="517" d="M129 -208V369L74 359V-219L129 -208ZM395 485V132Q369 104 339 82T279 47T221 34Q167 34 148 69T129 154V485H74V148Q74 102 88 66T135 8T220 -13Q250 -13 283 -1T346 31T396 76L406 0H450V485H395Z" />
<glyph unicode="&#xb6;" horiz-adv-x="810" d="M387 0V636H612V0H667V636H773V680H283Q212 680 157 659T70 592T38 475Q38 422 58 382T113 316T194 277T294 264H332V0H387Z" />
<glyph unicode="&#xb7;" horiz-adv-x="145" d="M73 219Q90 219 102 232T115 262Q115 280 103 292T73 304Q54 304 42 292T30 262Q30 245 42 232T73 219Z" />
<glyph unicode="&#xb8;" horiz-adv-x="206" d="M54 -79Q82 -80 103 -88T136 -109T148 -136Q148 -155 129 -167T84 -180Q68 -180 51 -175T25 -166L10 -202Q23 -210 45 -215T86 -221Q117 -221 142 -211T181 -181T196 -134Q196 -116 186 -99T157 -69T110 -52L136
13H89L54 -79Z" />
<glyph unicode="&#xb9;" horiz-adv-x="243" d="M166 336V765H136L10 700L33 669L117 711V336H166Z" />
<glyph unicode="&#xba;" horiz-adv-x="362" d="M180 702Q138 702 104 681T48 622T27 532Q27 478 47 441T103 383T180 363Q223 363 258 383T314 442T335 532Q335 586 314 624T258 682T180 702ZM180 660Q222 660 252 628T282 532Q282 489 267 461T229 419T180 405Q142
405 111 437T79 532Q79 576 94 604T132 646T180 660Z" />
<glyph unicode="&#xbb;" horiz-adv-x="363" d="M182 264L42 406L20 370L138 245L20 120L42 84L182 226V264ZM333 264L194 406L172 370L290 245L172 120L194 84L333 226V264Z" />
<glyph unicode="&#xbc;" horiz-adv-x="716" d="M166 336V765H136L10 700L33 669L117 711V336H166ZM696 -32H615V320H583L330 -32L334 -71H567V-164H615V-71H692L696 -32ZM567 229V-32H382L567 229ZM536 700L34 -134H89L585 700H536Z" />
<glyph unicode="&#xbd;" horiz-adv-x="750" d="M166 336V765H136L10 700L33 669L117 711V336H166ZM576 325Q551 325 525 320T475 306T433 287L452 250Q466 258 487 266T531 279T574 285Q608 285 628 272T658 240T667 201Q667 179 651 147T585 69L429 -70V-110H731L725
-72H486L611 37Q666 86 691 124T717 204Q717 232 703 260T657 306T576 325ZM532 700L30 -134H85L581 700H532Z" />
<glyph unicode="&#xbe;" horiz-adv-x="767" d="M155 771Q109 771 74 759T9 727L31 693Q50 705 80 718T154 731Q200 731 226 708T252 650Q252 622 239 601T198 568T128 556H96L103 518H123Q201 518 231 491T262 415Q262 385 246 364T204 331T147 320Q104 320 77
328T24 353L0 318Q26 303 63 291T143 278Q196 278 233 296T291 346T311 416Q311 448 300 473T269 515T220 538Q243 546 261 562T291 601T302 651Q302 700 266 735T155 771ZM616 700L114 -134H169L665 700H616ZM746 -32H665V320H633L380 -32L384 -71H617V-164H665V-71H742L746
-32ZM617 229V-32H432L617 229Z" />
<glyph unicode="&#xbf;" horiz-adv-x="398" d="M240 536Q259 536 271 549T283 579Q283 597 271 609T240 622Q223 622 210 610T197 579Q197 562 210 549T240 536ZM212 -80Q271 -80 313 -62T388 -20L380 28Q341 0 305 -16T214 -33Q154 -33 122 -4T89 85Q89 142 136
188T262 259L255 464L216 484L207 290Q152 266 112 232T51 160T30 83Q30 36 49 -1T108 -59T212 -80Z" />
<glyph unicode="&#xc0;" horiz-adv-x="581" d="M420 253H155L285 608L420 253ZM257 680L10 0H64L140 209H436L516 -6L571 5L312 680H257ZM287 739L323 751L268 892H202L287 739Z" />
<glyph unicode="&#xc1;" horiz-adv-x="581" d="M420 253H155L285 608L420 253ZM257 680L10 0H64L140 209H436L516 -6L571 5L312 680H257ZM289 739L374 892H308L253 751L289 739Z" />
<glyph unicode="&#xc2;" horiz-adv-x="581" d="M420 253H155L285 608L420 253ZM257 680L10 0H64L140 209H436L516 -6L571 5L312 680H257ZM285 853L364 740L413 752L309 893H260L157 750L204 740L285 853Z" />
<glyph unicode="&#xc3;" horiz-adv-x="581" d="M420 253H155L285 608L420 253ZM257 680L10 0H64L140 209H436L516 -6L571 5L312 680H257ZM377 849Q375 826 364 814T335 801Q322 801 310 807T287 827Q276 840 260 846T222 853Q200 853 181 844T151 816T139 762H181Q183
785 194 798T223 811Q236 811 249 805T275 785Q288 772 303 765T335 758Q358 758 377 767T407 796T418 849H377Z" />
<glyph unicode="&#xc4;" horiz-adv-x="581" d="M420 253H155L285 608L420 253ZM257 680L10 0H64L140 209H436L516 -6L571 5L312 680H257ZM203 768Q220 768 231 779T243 808Q243 825 232 836T203 847Q186 847 175 836T163 808Q163 791 174 780T203 768ZM361 768Q378
768 389 779T401 808Q401 825 390 836T361 847Q343 847 332 836T321 808Q321 791 332 780T361 768Z" />
<glyph unicode="&#xc5;" horiz-adv-x="581" d="M420 253H155L285 608L420 253ZM257 680L10 0H64L140 209H436L516 -6L571 5L312 680H257ZM285 909Q261 909 241 898T209 868T196 825Q196 790 222 767T285 744Q309 744 329 754T361 783T373 825Q373 849 361 868T329
898T285 909ZM285 778Q265 778 252 791T238 825Q238 846 251 860T285 874Q305 874 318 860T332 825Q332 805 319 792T285 778Z" />
<glyph unicode="&#xc6;" horiz-adv-x="835" d="M434 0H815L810 44H489V328H734L729 369H489V638H793L788 680H426L10 5L63 -5L191 209H434V0ZM434 604V253H219L434 604Z" />
<glyph unicode="&#xc7;" horiz-adv-x="553" d="M526 657Q507 670 476 678T414 690T361 694Q288 694 230 667T131 590T70 476T48 336Q48 267 67 204T123 92T219 15T355 -14Q384 -14 416 -9T478 4T526 23L502 65Q475 53 441 44T352 35Q294 35 249 59T172 125T125
221T108 337Q108 429 141 498T232 607T361 646Q397 646 421 642T466 632T506 616L526 657ZM301 -79Q329 -80 350 -88T383 -109T395 -136Q395 -155 376 -167T331 -180Q315 -180 298 -175T272 -166L257 -202Q270 -210 292 -215T333 -221Q364 -221 389 -211T428 -181T443
-134Q443 -116 433 -99T404 -69T357 -52L383 13H336L301 -79Z" />
<glyph unicode="&#xc8;" horiz-adv-x="499" d="M479 0L473 44H153V328H398L393 369H153V638H456L451 680H98V0H479ZM279 739L315 751L260 892H194L279 739Z" />
<glyph unicode="&#xc9;" horiz-adv-x="499" d="M479 0L473 44H153V328H398L393 369H153V638H456L451 680H98V0H479ZM280 739L365 892H299L244 751L280 739Z" />
<glyph unicode="&#xca;" horiz-adv-x="499" d="M479 0L473 44H153V328H398L393 369H153V638H456L451 680H98V0H479ZM277 853L356 740L405 752L301 893H252L149 750L196 740L277 853Z" />
<glyph unicode="&#xcb;" horiz-adv-x="499" d="M479 0L473 44H153V328H398L393 369H153V638H456L451 680H98V0H479ZM194 768Q211 768 222 779T234 808Q234 825 223 836T194 847Q177 847 166 836T154 808Q154 791 165 780T194 768ZM352 768Q369 768 380 779T392
808Q392 825 381 836T352 847Q334 847 323 836T312 808Q312 791 323 780T352 768Z" />
<glyph unicode="&#xcc;" horiz-adv-x="250" d="M153 0V680H98V0H153ZM128 739L164 751L109 892H43L128 739Z" />
<glyph unicode="&#xcd;" horiz-adv-x="250" d="M153 0V680H98V0H153ZM130 739L215 892H149L94 751L130 739Z" />
<glyph unicode="&#xce;" horiz-adv-x="250" d="M153 0V680H98V0H153ZM382 853L461 740L510 752L406 893H357L254 750L301 740L382 853Z" />
<glyph unicode="&#xcf;" horiz-adv-x="250" d="M153 0V680H98V0H153ZM300 768Q317 768 328 779T340 808Q340 825 329 836T300 847Q283 847 272 836T260 808Q260 791 271 780T300 768ZM458 768Q475 768 486 779T498 808Q498 825 487 836T458 847Q440 847 429 836T418
808Q418 791 429 780T458 768Z" />
<glyph unicode="&#xd0;" horiz-adv-x="663" d="M272 312L263 356H15L24 312H272ZM320 0Q420 0 485 46T582 171T615 344Q615 437 586 513T494 634T325 680H98V0H320ZM331 635Q409 635 459 596T535 490T560 343Q560 256 530 189T447 83T321 45H153V635H331Z" />
<glyph unicode="&#xd1;" horiz-adv-x="670" d="M153 0V568L167 539L539 0H573V680H517V119L483 178L132 680H98V0H153ZM427 849Q425 826 414 814T385 801Q372 801 360 807T337 827Q326 840 310 846T272 853Q250 853 231 844T201 816T189 762H231Q233 785 244 798T273
811Q286 811 299 805T325 785Q338 772 353 765T385 758Q408 758 427 767T457 796T468 849H427Z" />
<glyph unicode="&#xd2;" horiz-adv-x="713" d="M354 -14Q265 -14 196 31T88 155T48 337Q48 440 88 521T198 648T360 696Q448 696 517 651T626 527T666 345Q666 242 626 161T515 34T354 -14ZM352 33Q426 33 483 73T572 184T605 344Q605 432 574 500T487 608T361
648Q288 648 231 608T141 498T108 338Q108 250 139 181T226 73T352 33ZM362 739L398 751L343 892H277L362 739Z" />
<glyph unicode="&#xd3;" horiz-adv-x="713" d="M354 -14Q265 -14 196 31T88 155T48 337Q48 440 88 521T198 648T360 696Q448 696 517 651T626 527T666 345Q666 242 626 161T515 34T354 -14ZM352 33Q426 33 483 73T572 184T605 344Q605 432 574 500T487 608T361
648Q288 648 231 608T141 498T108 338Q108 250 139 181T226 73T352 33ZM364 739L449 892H383L328 751L364 739Z" />
<glyph unicode="&#xd4;" horiz-adv-x="713" d="M354 -14Q265 -14 196 31T88 155T48 337Q48 440 88 521T198 648T360 696Q448 696 517 651T626 527T666 345Q666 242 626 161T515 34T354 -14ZM352 33Q426 33 483 73T572 184T605 344Q605 432 574 500T487 608T361
648Q288 648 231 608T141 498T108 338Q108 250 139 181T226 73T352 33ZM360 853L439 740L488 752L384 893H335L232 750L279 740L360 853Z" />
<glyph unicode="&#xd5;" horiz-adv-x="713" d="M354 -14Q265 -14 196 31T88 155T48 337Q48 440 88 521T198 648T360 696Q448 696 517 651T626 527T666 345Q666 242 626 161T515 34T354 -14ZM352 33Q426 33 483 73T572 184T605 344Q605 432 574 500T487 608T361
648Q288 648 231 608T141 498T108 338Q108 250 139 181T226 73T352 33ZM452 849Q450 826 439 814T410 801Q397 801 385 807T362 827Q351 840 335 846T297 853Q275 853 256 844T226 816T214 762H256Q258 785 269 798T298 811Q311 811 324 805T350 785Q363 772 378
765T410 758Q433 758 452 767T482 796T493 849H452Z" />
<glyph unicode="&#xd6;" horiz-adv-x="713" d="M354 -14Q265 -14 196 31T88 155T48 337Q48 440 88 521T198 648T360 696Q448 696 517 651T626 527T666 345Q666 242 626 161T515 34T354 -14ZM352 33Q426 33 483 73T572 184T605 344Q605 432 574 500T487 608T361
648Q288 648 231 608T141 498T108 338Q108 250 139 181T226 73T352 33ZM278 768Q295 768 306 779T318 808Q318 825 307 836T278 847Q261 847 250 836T238 808Q238 791 249 780T278 768ZM436 768Q453 768 464 779T476 808Q476 825 465 836T436 847Q418 847 407 836T396
808Q396 791 407 780T436 768Z" />
<glyph unicode="&#xd7;" horiz-adv-x="478" d="M265 245L432 31H376L237 205L87 31H30L213 250L47 464H102L240 290L392 464H448L265 245Z" />
<glyph unicode="&#xd8;" horiz-adv-x="713" d="M354 -14Q265 -14 196 31T88 155T48 337Q48 440 88 521T198 648T360 696Q448 696 517 651T626 527T666 345Q666 242 626 161T515 34T354 -14ZM352 33Q426 33 483 73T572 184T605 344Q605 432 574 500T487 608T361
648Q288 648 231 608T141 498T108 338Q108 250 139 181T226 73T352 33ZM255 37L208 59L456 634L504 614L255 37Z" />
<glyph unicode="&#xd9;" horiz-adv-x="665" d="M143 680H88V239Q88 167 117 110T201 21T332 -12Q410 -12 464 20T548 110T577 239V680H522V242Q522 184 500 137T435 63T332 35Q275 35 233 62T167 137T143 242V680ZM334 739L370 751L315 892H249L334 739Z" />
<glyph unicode="&#xda;" horiz-adv-x="665" d="M143 680H88V239Q88 167 117 110T201 21T332 -12Q410 -12 464 20T548 110T577 239V680H522V242Q522 184 500 137T435 63T332 35Q275 35 233 62T167 137T143 242V680ZM336 739L421 892H355L300 751L336 739Z" />
<glyph unicode="&#xdb;" horiz-adv-x="665" d="M143 680H88V239Q88 167 117 110T201 21T332 -12Q410 -12 464 20T548 110T577 239V680H522V242Q522 184 500 137T435 63T332 35Q275 35 233 62T167 137T143 242V680ZM332 853L411 740L460 752L356 893H307L204 750L251
740L332 853Z" />
<glyph unicode="&#xdc;" horiz-adv-x="665" d="M143 680H88V239Q88 167 117 110T201 21T332 -12Q410 -12 464 20T548 110T577 239V680H522V242Q522 184 500 137T435 63T332 35Q275 35 233 62T167 137T143 242V680ZM250 768Q267 768 278 779T290 808Q290 825 279
836T250 847Q233 847 222 836T210 808Q210 791 221 780T250 768ZM408 768Q425 768 436 779T448 808Q448 825 437 836T408 847Q390 847 379 836T368 808Q368 791 379 780T408 768Z" />
<glyph unicode="&#xdd;" horiz-adv-x="537" d="M290 0V278L527 680H466L262 328L62 692L10 666L235 272V0H290ZM266 739L351 892H285L230 751L266 739Z" />
<glyph unicode="&#xde;" horiz-adv-x="549" d="M267 600Q338 600 393 580T480 514T512 395Q512 340 492 300T437 235T355 197T256 184H153V0H98V680H153V600H267ZM263 229Q317 229 360 246T430 301T456 394Q456 453 433 488T370 538T274 554H153V229H263Z" />
<glyph unicode="&#xdf;" horiz-adv-x="550" d="M78 0H133V473Q133 519 149 555T199 612T282 633Q336 633 376 601T416 502Q416 439 379 407T251 375H224V330H269Q351 330 400 296T450 186Q450 134 425 103T356 59T259 45H208V0H251Q322 0 380 17T472 75T507 188Q507
232 491 265T447 321T382 356Q411 369 431 390T462 439T473 503Q473 562 447 601T377 660T282 680Q220 680 174 656T103 585T78 473V0Z" />
<glyph unicode="&#xe0;" horiz-adv-x="479" d="M108 136Q108 180 137 211T226 242H360V113Q336 80 300 57T216 33Q180 33 156 47T120 86T108 136ZM105 418Q133 431 163 441T244 452Q303 452 331 419T360 336V281H225Q149 281 101 243T52 136Q52 73 92 30T215 -13Q260
-13 299 6T363 52L371 0H415V340Q415 388 395 423T336 478T241 498Q221 498 192 493T134 478T86 456L105 418ZM247 589L283 601L228 742H162L247 589Z" />
<glyph unicode="&#xe1;" horiz-adv-x="479" d="M108 136Q108 180 137 211T226 242H360V113Q336 80 300 57T216 33Q180 33 156 47T120 86T108 136ZM105 418Q133 431 163 441T244 452Q303 452 331 419T360 336V281H225Q149 281 101 243T52 136Q52 73 92 30T215 -13Q260
-13 299 6T363 52L371 0H415V340Q415 388 395 423T336 478T241 498Q221 498 192 493T134 478T86 456L105 418ZM235 589L320 742H254L199 601L235 589Z" />
<glyph unicode="&#xe2;" horiz-adv-x="479" d="M108 136Q108 180 137 211T226 242H360V113Q336 80 300 57T216 33Q180 33 156 47T120 86T108 136ZM105 418Q133 431 163 441T244 452Q303 452 331 419T360 336V281H225Q149 281 101 243T52 136Q52 73 92 30T215 -13Q260
-13 299 6T363 52L371 0H415V340Q415 388 395 423T336 478T241 498Q221 498 192 493T134 478T86 456L105 418ZM248 703L327 589L376 601L272 742H223L120 599L167 589L248 703Z" />
<glyph unicode="&#xe3;" horiz-adv-x="479" d="M108 136Q108 180 137 211T226 242H360V113Q336 80 300 57T216 33Q180 33 156 47T120 86T108 136ZM105 418Q133 431 163 441T244 452Q303 452 331 419T360 336V281H225Q149 281 101 243T52 136Q52 73 92 30T215 -13Q260
-13 299 6T363 52L371 0H415V340Q415 388 395 423T336 478T241 498Q221 498 192 493T134 478T86 456L105 418ZM336 699Q334 676 323 664T294 651Q281 651 269 657T246 677Q235 690 219 696T181 703Q159 703 140 694T110 666T98 612H140Q142 635 153 648T182 661Q195
661 208 655T234 635Q247 622 262 615T294 608Q317 608 336 617T366 646T377 699H336Z" />
<glyph unicode="&#xe4;" horiz-adv-x="479" d="M108 136Q108 180 137 211T226 242H360V113Q336 80 300 57T216 33Q180 33 156 47T120 86T108 136ZM105 418Q133 431 163 441T244 452Q303 452 331 419T360 336V281H225Q149 281 101 243T52 136Q52 73 92 30T215 -13Q260
-13 299 6T363 52L371 0H415V340Q415 388 395 423T336 478T241 498Q221 498 192 493T134 478T86 456L105 418ZM166 618Q183 618 194 629T206 658Q206 675 195 686T166 697Q149 697 138 686T126 658Q126 641 137 630T166 618ZM324 618Q341 618 352 629T364 658Q364
675 353 686T324 697Q306 697 295 686T284 658Q284 641 295 630T324 618Z" />
<glyph unicode="&#xe5;" horiz-adv-x="479" d="M108 136Q108 180 137 211T226 242H360V113Q336 80 300 57T216 33Q180 33 156 47T120 86T108 136ZM105 418Q133 431 163 441T244 452Q303 452 331 419T360 336V281H225Q149 281 101 243T52 136Q52 73 92 30T215 -13Q260
-13 299 6T363 52L371 0H415V340Q415 388 395 423T336 478T241 498Q221 498 192 493T134 478T86 456L105 418ZM244 759Q220 759 200 748T168 718T155 675Q155 640 181 617T244 594Q268 594 288 604T320 633T332 675Q332 699 320 718T288 748T244 759ZM244 628Q224
628 211 641T197 675Q197 696 210 710T244 724Q264 724 277 710T291 675Q291 655 278 642T244 628Z" />
<glyph unicode="&#xe6;" horiz-adv-x="805" d="M767 241H413Q414 183 431 136T487 61T589 33Q636 33 670 44T736 70L756 29Q735 17 708 8T652 -7T594 -13Q524 -13 476 12T399 80Q382 57 358 36T299 1T215 -13Q133 -13 93 30T52 136Q52 205 100 243T225 281H360V336Q360
386 332 419T244 452Q193 452 163 442T105 418L86 456Q105 469 133 478T191 492T241 498Q301 498 341 475T400 411Q427 452 470 475T573 498Q635 498 678 465T744 376T767 248V241ZM415 281H710Q706 329 691 368T645 429T567 452Q519 452 487 430T438 368T415 281ZM360
242H226Q186 244 160 230T121 190T108 136Q108 110 120 86T156 48T216 33Q262 33 292 46T342 80T377 124Q368 150 364 180T360 242Z" />
<glyph unicode="&#xe7;" horiz-adv-x="450" d="M391 67Q365 54 338 44T260 33Q206 33 169 61T113 138T94 246Q95 303 115 349T173 424T265 452Q314 452 342 441T396 418L416 456Q397 469 370 478T315 492T267 498Q196 498 145 465T66 375T38 245Q38 170 64 112T139
20T260 -13Q281 -13 308 -8T363 6T411 28L391 67ZM207 -79Q235 -80 256 -88T289 -109T301 -136Q301 -155 282 -167T237 -180Q221 -180 204 -175T178 -166L163 -202Q176 -210 198 -215T239 -221Q270 -221 295 -211T334 -181T349 -134Q349 -116 339 -99T310 -69T263
-52L289 13H242L207 -79Z" />
<glyph unicode="&#xe8;" horiz-adv-x="486" d="M448 241V247Q448 319 425 376T359 465T253 498Q182 498 134 465T62 375T38 245Q38 170 63 112T141 20T275 -13Q303 -13 332 -8T388 7T437 29L417 70Q386 54 352 43T269 32Q207 32 169 60T113 135T94 241H448ZM96
280Q101 328 118 367T168 429T248 452Q296 452 326 429T371 367T391 280H96ZM255 589L291 601L236 742H170L255 589Z" />
<glyph unicode="&#xe9;" horiz-adv-x="486" d="M448 241V247Q448 319 425 376T359 465T253 498Q182 498 134 465T62 375T38 245Q38 170 63 112T141 20T275 -13Q303 -13 332 -8T388 7T437 29L417 70Q386 54 352 43T269 32Q207 32 169 60T113 135T94 241H448ZM96
280Q101 328 118 367T168 429T248 452Q296 452 326 429T371 367T391 280H96ZM243 589L328 742H262L207 601L243 589Z" />
<glyph unicode="&#xea;" horiz-adv-x="486" d="M448 241V247Q448 319 425 376T359 465T253 498Q182 498 134 465T62 375T38 245Q38 170 63 112T141 20T275 -13Q303 -13 332 -8T388 7T437 29L417 70Q386 54 352 43T269 32Q207 32 169 60T113 135T94 241H448ZM96
280Q101 328 118 367T168 429T248 452Q296 452 326 429T371 367T391 280H96ZM256 703L335 589L384 601L280 742H231L128 599L175 589L256 703Z" />
<glyph unicode="&#xeb;" horiz-adv-x="486" d="M448 241V247Q448 319 425 376T359 465T253 498Q182 498 134 465T62 375T38 245Q38 170 63 112T141 20T275 -13Q303 -13 332 -8T388 7T437 29L417 70Q386 54 352 43T269 32Q207 32 169 60T113 135T94 241H448ZM96
280Q101 328 118 367T168 429T248 452Q296 452 326 429T371 367T391 280H96ZM173 618Q190 618 201 629T213 658Q213 675 202 686T173 697Q156 697 145 686T133 658Q133 641 144 630T173 618ZM331 618Q348 618 359 629T371 658Q371 675 360 686T331 697Q313 697
302 686T291 658Q291 641 302 630T331 618Z" />
<glyph unicode="&#xec;" horiz-adv-x="191" d="M123 0V485H68V0H123ZM100 589L136 601L81 742H15L100 589Z" />
<glyph unicode="&#xed;" horiz-adv-x="191" d="M123 0V485H68V0H123ZM88 589L173 742H107L52 601L88 589Z" />
<glyph unicode="&#xee;" horiz-adv-x="191" d="M123 0V485H68V0H123ZM357 703L436 589L485 601L381 742H332L229 599L276 589L357 703Z" />
<glyph unicode="&#xef;" horiz-adv-x="191" d="M123 0V485H68V0H123ZM274 618Q291 618 302 629T314 658Q314 675 303 686T274 697Q257 697 246 686T234 658Q234 641 245 630T274 618ZM432 618Q449 618 460 629T472 658Q472 675 461 686T432 697Q414 697 403 686T392
658Q392 641 403 630T432 618Z" />
<glyph unicode="&#xf0;" horiz-adv-x="525" d="M487 240Q487 324 466 400T401 541T286 659T114 750L98 713Q199 671 263 618T364 504T416 375T431 239Q431 183 411 136T352 61T260 33Q206 33 169 61T113 138T94 246Q95 303 115 349T173 424T265 452Q296 452 324
443T378 417T423 376L450 396Q426 427 400 449T342 485T266 498Q195 498 144 465T66 374T38 245Q38 170 63 112T138 21T259 -13Q330 -12 381 21T459 111T487 240ZM112 571L379 706L358 742L90 610L112 571Z" />
<glyph unicode="&#xf1;" horiz-adv-x="507" d="M123 0V353Q148 382 178 404T238 438T296 451Q350 451 369 416T389 331V0H444V337Q444 384 429 420T382 477T297 498Q267 498 235 486T173 454T122 410L112 485H68V0H123ZM356 699Q354 676 343 664T314 651Q301 651
289 657T266 677Q255 690 239 696T201 703Q179 703 160 694T130 666T118 612H160Q162 635 173 648T202 661Q215 661 228 655T254 635Q267 622 282 615T314 608Q337 608 356 617T386 646T397 699H356Z" />
<glyph unicode="&#xf2;" horiz-adv-x="525" d="M259 -13Q187 -13 138 20T64 112T38 245Q38 317 65 374T144 464T266 498Q338 498 387 466T461 376T487 240Q487 168 460 111T381 21T259 -13ZM260 33Q314 33 352 61T410 136T431 239Q431 299 412 347T357 423T265
452Q212 452 174 424T115 350T94 246Q94 187 113 139T169 62T260 33ZM268 589L304 601L249 742H183L268 589Z" />
<glyph unicode="&#xf3;" horiz-adv-x="525" d="M259 -13Q187 -13 138 20T64 112T38 245Q38 317 65 374T144 464T266 498Q338 498 387 466T461 376T487 240Q487 168 460 111T381 21T259 -13ZM260 33Q314 33 352 61T410 136T431 239Q431 299 412 347T357 423T265
452Q212 452 174 424T115 350T94 246Q94 187 113 139T169 62T260 33ZM256 589L341 742H275L220 601L256 589Z" />
<glyph unicode="&#xf4;" horiz-adv-x="525" d="M259 -13Q187 -13 138 20T64 112T38 245Q38 317 65 374T144 464T266 498Q338 498 387 466T461 376T487 240Q487 168 460 111T381 21T259 -13ZM260 33Q314 33 352 61T410 136T431 239Q431 299 412 347T357 423T265
452Q212 452 174 424T115 350T94 246Q94 187 113 139T169 62T260 33ZM269 703L348 589L397 601L293 742H244L141 599L188 589L269 703Z" />
<glyph unicode="&#xf5;" horiz-adv-x="525" d="M259 -13Q187 -13 138 20T64 112T38 245Q38 317 65 374T144 464T266 498Q338 498 387 466T461 376T487 240Q487 168 460 111T381 21T259 -13ZM260 33Q314 33 352 61T410 136T431 239Q431 299 412 347T357 423T265
452Q212 452 174 424T115 350T94 246Q94 187 113 139T169 62T260 33ZM357 699Q355 676 344 664T315 651Q302 651 290 657T267 677Q256 690 240 696T202 703Q180 703 161 694T131 666T119 612H161Q163 635 174 648T203 661Q216 661 229 655T255 635Q268 622 283
615T315 608Q338 608 357 617T387 646T398 699H357Z" />
<glyph unicode="&#xf6;" horiz-adv-x="525" d="M259 -13Q187 -13 138 20T64 112T38 245Q38 317 65 374T144 464T266 498Q338 498 387 466T461 376T487 240Q487 168 460 111T381 21T259 -13ZM260 33Q314 33 352 61T410 136T431 239Q431 299 412 347T357 423T265
452Q212 452 174 424T115 350T94 246Q94 187 113 139T169 62T260 33ZM186 618Q203 618 214 629T226 658Q226 675 215 686T186 697Q169 697 158 686T146 658Q146 641 157 630T186 618ZM344 618Q361 618 372 629T384 658Q384 675 373 686T344 697Q326 697 315 686T304
658Q304 641 315 630T344 618Z" />
<glyph unicode="&#xf7;" horiz-adv-x="497" d="M248 369Q267 369 280 383T294 415Q294 435 281 448T248 462Q227 462 214 449T201 415Q201 397 214 383T248 369ZM458 295H30L38 252H467L458 295ZM251 66Q270 66 283 80T297 113Q297 132 284 145T251 159Q230 159
217 146T204 113Q204 94 217 80T251 66Z" />
<glyph unicode="&#xf8;" horiz-adv-x="525" d="M259 -13Q187 -13 138 20T64 112T38 245Q38 317 65 374T144 464T266 498Q338 498 387 466T461 376T487 240Q487 168 460 111T381 21T259 -13ZM260 33Q314 33 352 61T410 136T431 239Q431 299 412 347T357 423T265
452Q212 452 174 424T115 350T94 246Q94 187 113 139T169 62T260 33ZM186 27L142 49L348 447L388 418L186 27Z" />
<glyph unicode="&#xf9;" horiz-adv-x="507" d="M385 485V132Q359 104 329 82T269 47T211 34Q157 34 138 69T119 154V485H64V148Q64 102 78 66T125 8T210 -13Q240 -13 273 -1T336 31T386 76L396 0H440V485H385ZM252 589L288 601L233 742H167L252 589Z" />
<glyph unicode="&#xfa;" horiz-adv-x="507" d="M385 485V132Q359 104 329 82T269 47T211 34Q157 34 138 69T119 154V485H64V148Q64 102 78 66T125 8T210 -13Q240 -13 273 -1T336 31T386 76L396 0H440V485H385ZM240 589L325 742H259L204 601L240 589Z" />
<glyph unicode="&#xfb;" horiz-adv-x="507" d="M385 485V132Q359 104 329 82T269 47T211 34Q157 34 138 69T119 154V485H64V148Q64 102 78 66T125 8T210 -13Q240 -13 273 -1T336 31T386 76L396 0H440V485H385ZM253 703L332 589L381 601L277 742H228L125 599L172
589L253 703Z" />
<glyph unicode="&#xfc;" horiz-adv-x="507" d="M385 485V132Q359 104 329 82T269 47T211 34Q157 34 138 69T119 154V485H64V148Q64 102 78 66T125 8T210 -13Q240 -13 273 -1T336 31T386 76L396 0H440V485H385ZM170 618Q187 618 198 629T210 658Q210 675 199 686T170
697Q153 697 142 686T130 658Q130 641 141 630T170 618ZM328 618Q345 618 356 629T368 658Q368 675 357 686T328 697Q310 697 299 686T288 658Q288 641 299 630T328 618Z" />
<glyph unicode="&#xfd;" horiz-adv-x="434" d="M161 -98Q153 -120 140 -135T108 -160T64 -180L74 -219Q106 -212 132 -198T178 -161T207 -112L424 485H369L217 68L57 494L10 472L193 -3L161 -98ZM205 589L290 742H224L169 601L205 589Z" />
<glyph unicode="&#xfe;" horiz-adv-x="512" d="M259 498Q331 498 378 465T450 375T474 241Q474 169 449 111T375 20T254 -13Q218 -13 186 1T129 34V-208L74 -219V696L129 706V449Q156 471 189 484T259 498ZM256 33Q310 33 345 61T399 136T417 240Q417 300 401
348T350 424T260 452Q214 452 184 435T129 391V87Q152 66 182 50T256 33Z" />
<glyph unicode="&#xff;" horiz-adv-x="434" d="M161 -98Q153 -120 140 -135T108 -160T64 -180L74 -219Q106 -212 132 -198T178 -161T207 -112L424 485H369L217 68L57 494L10 472L193 -3L161 -98ZM135 618Q152 618 163 629T175 658Q175 675 164 686T135 697Q118
697 107 686T95 658Q95 641 106 630T135 618ZM293 618Q310 618 321 629T333 658Q333 675 322 686T293 697Q275 697 264 686T253 658Q253 641 264 630T293 618Z" />
<glyph unicode="&#x2013;" horiz-adv-x="435" d="M397 295H30L38 251H405L397 295Z" />
<glyph unicode="&#x2014;" horiz-adv-x="529" d="M491 295H30L38 251H499L491 295Z" />
<glyph unicode="&#x2018;" horiz-adv-x="156" d="M73 509Q86 509 95 515T109 531T115 551Q115 565 105 579T76 594Q77 621 94 640T136 674L118 702Q92 689 72 667T41 616T30 557Q30 537 41 523T73 509Z" />
<glyph unicode="&#x2019;" horiz-adv-x="156" d="M83 702Q70 702 61 696T46 680T40 659Q40 650 44 641T58 624T79 616Q77 590 61 571T20 536L37 509Q64 522 83 544T114 595T126 653Q126 673 114 687T83 702Z" />
<glyph unicode="&#x201a;" horiz-adv-x="156" d="M83 84Q70 84 61 78T46 63T40 42Q40 33 44 24T58 7T79 0Q77 -27 61 -46T20 -81L37 -108Q64 -94 83 -72T114 -22T126 37Q126 56 114 70T83 84Z" />
<glyph unicode="&#x201c;" horiz-adv-x="289" d="M73 509Q86 509 95 515T109 531T115 551Q115 565 105 579T76 594Q77 621 94 640T136 674L118 702Q92 689 72 667T41 616T30 557Q30 537 41 523T73 509ZM206 509Q220 509 229 515T244 531T249 551Q249 561 245 570T232
587T211 594Q212 621 228 640T269 674L253 702Q226 689 206 667T175 616T164 557Q164 537 176 523T206 509Z" />
<glyph unicode="&#x201d;" horiz-adv-x="289" d="M217 702Q204 702 195 696T180 680T174 659Q174 645 184 631T213 616Q212 590 196 571T154 536L171 509Q198 522 217 544T248 595T259 653Q259 673 247 687T217 702ZM83 702Q70 702 61 696T46 680T40 659Q40 650
44 641T58 624T79 616Q77 590 61 571T20 536L37 509Q64 522 83 544T114 595T126 653Q126 673 114 687T83 702Z" />
<glyph unicode="&#x201e;" horiz-adv-x="289" d="M83 85Q70 85 61 79T46 64T40 42Q40 33 44 24T58 7T79 0Q77 -27 61 -46T20 -81L37 -108Q64 -94 83 -72T114 -22T126 37Q126 56 114 70T83 85ZM217 84Q204 84 195 78T180 63T174 42Q174 28 184 14T213 0Q212 -27
196 -46T154 -81L171 -108Q198 -94 217 -72T248 -22T259 37Q259 56 247 70T217 84Z" />
<glyph unicode="&#x2022;" horiz-adv-x="202" d="M101 256Q121 256 137 265T162 291T172 326Q172 347 163 362T137 388T101 398Q82 398 66 388T40 363T30 326Q30 307 39 291T65 266T101 256Z" />
<glyph unicode="&#x2039;" horiz-adv-x="211" d="M30 226L170 83L191 122L77 245L191 368L170 408L30 264V226Z" />
<glyph unicode="&#x203a;" horiz-adv-x="212" d="M182 264L42 408L20 369L136 246L20 122L42 83L182 227V264Z" />
</font>
</defs>
</svg>
